<svg xmlns="http://www.w3.org/2000/svg" xmlns:xlink="http://www.w3.org/1999/xlink" width="1080" zoomAndPan="magnify" viewBox="0 0 810 809.999993" height="1080" preserveAspectRatio="xMidYMid meet" version="1.0"><path fill="#6e8b19" d="M 407.914062 506.597656 C 400.175781 496.804688 387.539062 493.742188 375.589844 495.703125 C 348.332031 500.160156 337.019531 529.789062 328.496094 552.441406 C 322.257812 569.140625 317.382812 586.230469 313.875 603.707031 C 310.367188 621.183594 308.269531 638.832031 307.582031 656.644531 C 306.359375 654.585938 305.132812 652.53125 303.933594 650.496094 C 291.964844 629.878906 278.621094 610.199219 263.894531 591.453125 C 256.757812 582.296875 248.917969 573.78125 240.378906 565.914062 C 231.839844 558.042969 222.714844 550.925781 213.007812 544.558594 C 196.035156 533.832031 165.863281 517.105469 147.644531 533.78125 C 138.386719 542.253906 136.941406 555.332031 136.722656 567.183594 C 136.550781 579.386719 138.078125 591.367188 141.300781 603.136719 C 147.792969 627.304688 160.550781 649.445312 175.585938 669.253906 C 191.949219 690.058594 209.964844 709.316406 229.632812 727.023438 C 250.082031 746.003906 270.703125 765.59375 292.863281 782.394531 C 302.660156 789.863281 313.582031 796.011719 325.949219 797.773438 C 327.355469 798.007812 328.761719 798.019531 330.167969 797.816406 C 331.578125 797.609375 332.921875 797.195312 334.203125 796.574219 C 343.117188 798.828125 352.863281 799.023438 359.695312 793.097656 C 365.082031 788.394531 365.867188 782.222656 364.8125 775.953125 C 366.941406 774.199219 368.902344 772.273438 370.691406 770.175781 C 379.582031 759.742188 384.96875 746.960938 389.277344 734.078125 C 399.074219 704.691406 403.261719 672.855469 408.230469 642.316406 C 413.203125 611.78125 419.621094 580.800781 418.640625 550.042969 C 418.175781 535.765625 417.097656 518.257812 407.914062 506.597656 Z M 160.941406 591.550781 C 158.699219 581.511719 158 571.363281 158.835938 561.113281 C 159.128906 557.734375 159.351562 552.640625 162.09375 550.214844 C 164.835938 547.789062 170.515625 548.988281 174.019531 549.992188 C 181.476562 552.210938 188.570312 555.269531 195.300781 559.175781 C 194.566406 559.175781 193.855469 559.175781 193.121094 559.175781 C 180.066406 560.304688 169.878906 569.609375 170.101562 583.175781 C 170.273438 595.25 177.007812 607.664062 181.660156 618.441406 C 186.558594 629.867188 191.996094 641.148438 197.96875 652.285156 C 203.773438 663.035156 210.066406 673.542969 216.753906 683.800781 C 191.726562 657.671875 168.804688 627.304688 160.941406 591.550781 Z M 240.507812 617.558594 C 232.328125 608.007812 223.683594 598.898438 214.574219 590.230469 C 207.03125 583.101562 196.820312 588.957031 196.183594 597.820312 C 193.367188 591.476562 190.304688 583.617188 192.386719 581.511719 C 194.46875 579.40625 201.152344 581.511719 203.40625 582.441406 C 208.035156 584.414062 212.230469 587.066406 215.992188 590.402344 C 223.824219 597.265625 231.167969 604.613281 238.035156 612.441406 C 239.625 614.179688 241.121094 615.992188 242.664062 617.78125 C 241.953125 617.632812 241.234375 617.558594 240.507812 617.558594 Z M 329.941406 771.988281 L 330.457031 771.71875 C 330.457031 771.960938 330.699219 772.160156 330.796875 772.378906 Z M 340.9375 600.5625 C 336.265625 632.21875 332.832031 664.03125 330.625 695.996094 C 330.625 696.242188 330.625 696.488281 330.625 696.730469 L 330.085938 695.753906 C 328.773438 679.164062 328.761719 662.574219 330.046875 645.984375 C 331.332031 629.394531 333.902344 613.003906 337.753906 596.816406 C 340.730469 583.878906 344.449219 571.164062 348.917969 558.664062 C 345.519531 572.523438 342.855469 586.519531 340.9375 600.660156 Z M 374.019531 550.460938 C 373.679688 557.804688 373.164062 564.957031 372.550781 572.15625 C 372.40625 574.019531 372.160156 575.878906 371.988281 577.738281 C 369.847656 578.105469 367.9375 578.976562 366.257812 580.359375 C 368.140625 570.242188 370.726562 560.308594 374.019531 550.558594 Z M 390.160156 617.339844 C 386.167969 643.394531 381.929688 669.476562 376.691406 695.3125 C 374.3125 707.792969 371.046875 720.039062 366.894531 732.046875 C 364.558594 739.269531 361.292969 746.042969 357.097656 752.371094 C 356.585938 751.023438 356.023438 749.703125 355.484375 748.378906 C 357.441406 746.875 358.78125 744.9375 359.5 742.574219 C 373.34375 701.371094 383.359375 659.261719 389.546875 616.238281 C 392.558594 594.980469 394.761719 573.625 395.964844 552.199219 C 396.503906 542.402344 396.527344 529.546875 391.066406 520.851562 C 394.910156 525.75 395.546875 533.976562 396.183594 539.90625 C 398.851562 565.8125 394.078125 591.992188 390.160156 617.4375 Z M 236 373.601562 C 237.667969 376.046875 239.332031 378.351562 240.898438 380.675781 C 245.625 387.386719 255.152344 388.023438 259.753906 380.675781 C 287.324219 336.832031 310.964844 290.964844 330.675781 243.074219 C 348.355469 200.21875 366.722656 153.933594 367.410156 106.914062 C 367.777344 85.191406 363.5625 63.003906 352.398438 44.125 C 341.230469 25.242188 321.980469 10.84375 300.308594 23.359375 C 281.183594 34.402344 272.21875 57.398438 264.53125 76.867188 C 255.605469 99.425781 249.320312 122.699219 245.675781 146.683594 C 243.910156 158.476562 242.742188 170.332031 242.171875 182.242188 C 242.128906 182.121094 242.074219 182.007812 242 181.898438 C 231.292969 162.941406 218.769531 145.269531 204.433594 128.882812 C 190.28125 112.667969 173.996094 95.527344 154.230469 86.292969 C 134.46875 77.0625 108.925781 75.863281 101.582031 101.011719 C 98.714844 111.054688 99.132812 122.464844 99.132812 132.847656 C 99.199219 143.953125 99.875 155.023438 101.164062 166.054688 C 102.453125 177.363281 104.351562 188.566406 106.855469 199.671875 C 109.359375 210.773438 112.457031 221.707031 116.148438 232.472656 C 119.839844 243.238281 124.105469 253.773438 128.9375 264.074219 C 133.773438 274.378906 139.152344 284.390625 145.074219 294.109375 C 166.453125 328.808594 196.28125 362.285156 236 373.601562 Z M 270.75 318.769531 C 270.75 317.765625 270.507812 316.761719 270.359375 315.757812 C 271.027344 315.792969 271.699219 315.792969 272.367188 315.757812 Z M 295.828125 177.859375 C 299.011719 166.03125 302.292969 154.203125 305.769531 142.449219 C 310.25 127.3125 314.292969 111.617188 320.097656 96.921875 C 321.320312 93.8125 323.648438 88.035156 327.050781 86.394531 C 327.261719 86.667969 327.359375 86.976562 327.34375 87.324219 C 327.515625 90.480469 328.546875 93.519531 328.617188 96.800781 C 329.15625 126.847656 317.941406 155.820312 307.289062 183.34375 C 307.035156 182.832031 306.738281 182.34375 306.40625 181.882812 C 306.070312 181.417969 305.699219 180.984375 305.292969 180.585938 C 304.882812 180.183594 304.445312 179.816406 303.980469 179.488281 C 303.511719 179.160156 303.019531 178.875 302.503906 178.625 C 301.988281 178.378906 301.457031 178.175781 300.90625 178.019531 C 300.355469 177.859375 299.796875 177.75 299.230469 177.683594 C 298.660156 177.617188 298.09375 177.601562 297.523438 177.628906 C 296.949219 177.660156 296.386719 177.734375 295.828125 177.859375 Z M 311.695312 232.152344 C 311.035156 233.792969 310.324219 235.433594 309.640625 237.050781 L 327.492188 191.15625 L 329.109375 186.96875 C 323.746094 202.347656 317.648438 217.507812 311.695312 232.152344 Z M 264.210938 175.410156 C 265.816406 153.933594 269.605469 132.847656 275.574219 112.15625 C 281.183594 92.5625 287.964844 71.503906 299.328125 54.507812 C 302.980469 49.046875 308.90625 41.429688 315.957031 40.476562 C 324.625 39.277344 330.652344 50.027344 334.175781 56.246094 C 336.585938 60.441406 338.578125 64.824219 340.152344 69.398438 C 338.984375 68.347656 337.707031 67.453125 336.320312 66.714844 C 334.933594 65.976562 333.476562 65.421875 331.953125 65.042969 C 330.429688 64.664062 328.878906 64.476562 327.308594 64.480469 C 325.738281 64.484375 324.191406 64.679688 322.667969 65.0625 C 307.605469 68.394531 301.117188 84.652344 296.855469 97.707031 C 285.429688 132.855469 275.296875 168.398438 266.464844 204.332031 C 265.558594 208.003906 264.75 211.679688 264.015625 215.375 C 263.261719 202.050781 263.328125 188.726562 264.210938 175.410156 Z M 249.519531 340.320312 C 249.519531 340.734375 249.347656 341.152344 249.25 341.566406 L 248.589844 340.050781 C 248.785156 340.074219 249.101562 340.125 249.421875 340.222656 Z M 194.8125 175.875 C 195.839844 177.417969 196.746094 179.082031 197.726562 180.773438 C 191.25 173.40625 183.90625 167.046875 175.683594 161.695312 C 170.003906 158.023438 162.507812 161.523438 160.011719 167.132812 C 159.007812 160.152344 158.421875 153.050781 158.050781 145.925781 C 173.75 147.640625 186.753906 163.558594 194.8125 175.875 Z M 193.167969 264.796875 C 179.371094 238.878906 169.246094 211.597656 162.804688 182.953125 C 172.335938 210.460938 182.460938 237.742188 193.167969 264.796875 Z M 121 130.253906 C 121 122.585938 120.144531 113.109375 123.007812 105.761719 C 126.167969 97.65625 137.238281 102.382812 143.210938 105.027344 C 154.894531 110.171875 164.984375 118.792969 174.140625 128.074219 C 171.765625 127.03125 169.324219 126.179688 166.8125 125.519531 C 164.304688 124.859375 161.757812 124.398438 159.175781 124.140625 C 156.59375 123.878906 154.007812 123.824219 151.417969 123.96875 C 148.828125 124.117188 146.261719 124.464844 143.726562 125.011719 C 143.15625 125.175781 142.601562 125.382812 142.066406 125.632812 C 141.53125 125.882812 141.015625 126.175781 140.527344 126.511719 C 140.035156 126.84375 139.578125 127.214844 139.144531 127.625 C 138.714844 128.03125 138.320312 128.472656 137.960938 128.941406 C 137.601562 129.414062 137.28125 129.910156 137.003906 130.433594 C 136.722656 130.957031 136.488281 131.5 136.292969 132.058594 C 136.101562 132.621094 135.953125 133.191406 135.855469 133.777344 C 135.753906 134.359375 135.699219 134.949219 135.695312 135.542969 C 136.136719 210.183594 170.984375 276.574219 211.414062 337.648438 C 203.777344 331.8125 196.671875 325.390625 190.097656 318.378906 C 183.523438 311.371094 177.566406 303.867188 172.230469 295.871094 C 166.667969 287.792969 161.523438 279.457031 156.800781 270.863281 C 152.074219 262.265625 147.796875 253.453125 143.960938 244.425781 C 140.125 235.398438 136.753906 226.203125 133.847656 216.835938 C 130.9375 207.46875 128.511719 197.976562 126.558594 188.363281 C 122.699219 169.1875 120.847656 149.816406 121 130.253906 Z M 707.144531 227.867188 C 703.054688 211.382812 687.898438 198.75 670.753906 206.65625 C 662.894531 210.28125 657.503906 217.015625 652.289062 223.679688 C 645.164062 232.8125 638.332031 242.191406 631.914062 251.839844 C 620.605469 268.90625 610.570312 286.695312 601.816406 305.203125 C 598.390625 312.402344 594.886719 319.894531 591.53125 327.78125 C 585.8125 312.636719 578.953125 298.027344 570.960938 283.949219 C 562.964844 269.875 553.929688 256.5 543.851562 243.832031 C 538.953125 237.660156 533.761719 230.339844 525.535156 228.503906 C 516.9375 226.59375 508.90625 231.21875 504.351562 238.296875 C 500.066406 244.984375 498.671875 252.992188 497.226562 260.679688 C 495.398438 270.550781 494.125 280.496094 493.40625 290.507812 C 490.5625 327.902344 496.882812 366.425781 514.417969 399.851562 C 518.078125 406.882812 522.234375 413.609375 526.882812 420.027344 C 531.535156 426.449219 536.628906 432.496094 542.164062 438.167969 C 547.703125 443.839844 553.625 449.078125 559.929688 453.878906 C 566.238281 458.683594 572.863281 463 579.800781 466.828125 C 579.800781 467.636719 579.65625 468.445312 579.605469 469.277344 C 578.945312 479.464844 591.628906 482.671875 598.242188 476.992188 C 599.566406 475.867188 600.839844 474.542969 602.136719 473.492188 C 604.039062 472.503906 605.582031 471.113281 606.765625 469.328125 C 613.324219 463.226562 619.617188 456.859375 625.644531 450.230469 C 631.667969 443.601562 637.40625 436.730469 642.859375 429.621094 C 648.308594 422.511719 653.453125 415.183594 658.292969 407.644531 C 663.128906 400.101562 667.640625 392.375 671.832031 384.453125 C 676.023438 376.535156 679.875 368.457031 683.390625 360.214844 C 686.902344 351.972656 690.066406 343.601562 692.878906 335.09375 C 695.691406 326.589844 698.144531 317.980469 700.234375 309.269531 C 702.328125 300.554688 704.050781 291.773438 705.40625 282.917969 C 707.976562 265.433594 711.480469 245.328125 707.144531 227.867188 Z M 546.839844 327.929688 C 541.476562 330.207031 539.640625 335.273438 540.523438 340.832031 C 542.015625 350.359375 543.679688 360.007812 545.957031 369.460938 C 544.734375 365.347656 543.507812 361.476562 542.601562 357.953125 C 535.757812 334.527344 531.113281 310.675781 528.667969 286.394531 C 535.828125 299.773438 542.152344 313.539062 547.648438 327.683594 Z M 654.25 309.757812 C 653.417969 309.839844 652.609375 310.027344 651.824219 310.316406 C 651.039062 310.605469 650.304688 310.988281 649.621094 311.46875 C 648.933594 311.945312 648.320312 312.503906 647.777344 313.136719 C 647.234375 313.773438 646.777344 314.464844 646.414062 315.21875 C 645.507812 316.882812 644.671875 318.574219 643.765625 320.117188 C 643.058594 320.582031 642.421875 321.125 641.851562 321.753906 C 641.28125 322.382812 640.800781 323.070312 640.40625 323.820312 C 640.011719 324.570312 639.71875 325.355469 639.523438 326.179688 C 639.332031 327.003906 639.242188 327.839844 639.261719 328.6875 C 635.539062 335.765625 631.914062 342.839844 628.265625 350.015625 C 636.695312 328.5625 646.929688 308.007812 658.976562 288.355469 C 657.636719 295.585938 656.0625 302.71875 654.25 309.757812 Z M 683.195312 284.214844 C 679.542969 305.320312 673.722656 325.808594 665.734375 345.683594 C 671.511719 329.683594 676.097656 313.351562 679.496094 296.683594 C 682.890625 280.015625 685.0625 263.191406 686.011719 246.207031 C 686.453125 238.519531 676.410156 232.664062 669.945312 236.265625 C 672.394531 233.058594 677.292969 225.613281 681.1875 225.859375 C 685.570312 226.175781 686.574219 235.308594 686.894531 238.492188 C 688.386719 253.335938 685.71875 269.621094 683.195312 284.214844 Z M 683.195312 284.214844 " fill-opacity="1" fill-rule="nonzero"/></svg>