<svg xmlns="http://www.w3.org/2000/svg" xmlns:xlink="http://www.w3.org/1999/xlink" width="1122" zoomAndPan="magnify" viewBox="0 0 841.92 595.499987" height="793" preserveAspectRatio="xMidYMid meet" version="1.0"><path fill="#ffffff" d="M 443.507812 539.695312 C 450.445312 528.167969 456.917969 516.367188 463.957031 505 C 470.992188 493.632812 478.097656 482.328125 485.230469 471.125 C 506.742188 437.347656 528.976562 404.644531 551.320312 371.78125 C 581.261719 327.75 611.171875 285.480469 636.621094 236.707031 C 649.160156 212.675781 660.925781 186.179688 666.984375 156.777344 C 670.21875 141.066406 671.875 123.046875 670.496094 106.378906 C 669.09375 89.503906 665.191406 74.847656 659.136719 62.59375 C 646.105469 36.25 621.5 16.832031 581.683594 20.667969 C 572.722656 21.53125 565.519531 23.238281 557.929688 25.417969 C 528.117188 33.988281 504.949219 47.90625 482.75 64.867188 C 461.480469 81.121094 441.574219 100.527344 425.746094 122.285156 C 420.324219 129.734375 415.207031 137.644531 411.082031 145.832031 C 410.785156 146.417969 410.378906 147.023438 410.257812 147.480469 C 409.769531 149.292969 410.542969 151.050781 410.257812 152.644531 C 410.097656 153.53125 409.703125 154.355469 409.222656 155.332031 C 407.894531 158.027344 406.617188 160.796875 403.234375 161.320312 C 396.398438 162.378906 395.414062 157.054688 393.941406 152.4375 C 393.15625 149.980469 392.117188 147.632812 391.460938 145.832031 C 386.660156 132.628906 380.773438 118.824219 374.523438 107.828125 C 365.574219 92.074219 355.667969 78.640625 343.132812 66.105469 C 331.171875 54.144531 317.78125 42.816406 301.617188 34.507812 C 286.410156 26.6875 264.8125 19.703125 241.515625 23.351562 C 220.847656 26.589844 206.109375 36.824219 194.632812 49.582031 C 182.859375 62.664062 175.082031 79.613281 171.292969 99.359375 C 167.261719 120.347656 168.585938 146.039062 171.707031 167.101562 C 174.976562 189.179688 180.144531 207.734375 185.957031 226.171875 C 197.457031 262.65625 214.410156 295.089844 232.632812 325.726562 C 250.816406 356.289062 272.050781 384.03125 293.148438 411.644531 C 303.746094 425.511719 314.058594 439.476562 324.542969 453.363281 C 345.632812 481.300781 366.167969 509.429688 388.570312 535.773438 C 399.0625 548.109375 410.5625 559.851562 420.789062 572.125 C 421.480469 572.953125 422.265625 574.210938 423.0625 574.1875 C 429.675781 562.5 436.636719 551.121094 443.507812 539.695312 Z M 401.789062 130.960938 C 402.722656 130.25 403.308594 129.039062 403.851562 128.066406 C 412.511719 112.648438 422.898438 98.414062 434.214844 85.316406 C 452.335938 65.023438 473.148438 46.917969 498.035156 32.027344 C 510.105469 24.804688 523.171875 18.214844 537.484375 12.820312 C 551.921875 7.378906 568.277344 2.703125 585.8125 1.871094 C 625.445312 0 651.199219 17.628906 666.984375 40.082031 C 682.902344 62.730469 692.207031 95.933594 688.464844 136.121094 C 685.140625 171.777344 674.101562 201.015625 661.199219 228.238281 C 641.683594 269.421875 618.613281 304.371094 594.695312 340.59375 C 575.082031 370.296875 554.472656 399.738281 534.386719 429.40625 C 530.359375 435.351562 526.28125 441.171875 522.40625 447.167969 C 507.015625 470.96875 491.140625 495.214844 476.140625 520.285156 C 465.199219 538.570312 454.113281 557.511719 442.890625 576.460938 C 439.265625 582.578125 435.429688 590.722656 429.464844 592.777344 C 428.992188 592.941406 428.007812 593.15625 426.988281 593.191406 C 425.554688 593.238281 424.902344 592.691406 423.679688 592.570312 C 422.660156 592.472656 422.25 592.90625 420.996094 593.191406 C 414.066406 594.761719 411.835938 589.9375 408.808594 586.167969 C 398.957031 573.886719 387.335938 562.359375 377.210938 550.644531 C 365.148438 536.6875 353.871094 522.113281 342.925781 508.097656 C 331.714844 493.738281 320.707031 479.113281 309.878906 464.308594 C 299.085938 449.554688 287.871094 434.945312 276.832031 420.523438 C 254.242188 391 232.582031 361.816406 213.839844 329.855469 C 204.464844 313.867188 195.230469 297.3125 187.195312 279.667969 C 179.199219 262.105469 172.3125 243.617188 166.128906 224.109375 C 159.964844 204.660156 154.851562 183.839844 152.292969 161.113281 C 149.644531 137.628906 149.597656 111.058594 154.5625 90.273438 C 159.390625 70.066406 167.734375 52.664062 179.761719 38.636719 C 191.433594 25.019531 206.613281 14.023438 225.816406 8.070312 C 247.34375 1.394531 272.746094 4.023438 291.910156 10.546875 C 310.574219 16.902344 327.234375 27.410156 340.652344 38.636719 C 354.785156 50.457031 366.609375 64.113281 376.796875 79.324219 C 387.015625 94.585938 395.089844 111.011719 401.789062 130.960938 " fill-opacity="1" fill-rule="evenodd"/></svg>