<svg xmlns="http://www.w3.org/2000/svg" xmlns:xlink="http://www.w3.org/1999/xlink" width="1080" zoomAndPan="magnify" viewBox="0 0 810 809.999993" height="1080" preserveAspectRatio="xMidYMid meet" version="1.0"><defs><clipPath id="e1f34588fa"><path d="M 527 176 L 783 176 L 783 396 L 527 396 Z M 527 176 " clip-rule="nonzero"/></clipPath><clipPath id="32209b9260"><path d="M 199.339844 25.285156 L 822.09375 239.128906 L 617.464844 835.035156 L -5.285156 621.191406 Z M 199.339844 25.285156 " clip-rule="nonzero"/></clipPath><clipPath id="bef69d0efe"><path d="M 199.339844 25.285156 L 822.09375 239.128906 L 617.464844 835.035156 L -5.285156 621.191406 Z M 199.339844 25.285156 " clip-rule="nonzero"/></clipPath><clipPath id="520e91e738"><path d="M 199.339844 25.285156 L 822.09375 239.128906 L 617.464844 835.035156 L -5.285156 621.191406 Z M 199.339844 25.285156 " clip-rule="nonzero"/></clipPath><clipPath id="badc0f1184"><path d="M 504 277 L 546 277 L 546 355.261719 L 504 355.261719 Z M 504 277 " clip-rule="nonzero"/></clipPath><clipPath id="b30d44193f"><path d="M 199.339844 25.285156 L 822.09375 239.128906 L 617.464844 835.035156 L -5.285156 621.191406 Z M 199.339844 25.285156 " clip-rule="nonzero"/></clipPath><clipPath id="24e5c5ae15"><path d="M 199.339844 25.285156 L 822.09375 239.128906 L 617.464844 835.035156 L -5.285156 621.191406 Z M 199.339844 25.285156 " clip-rule="nonzero"/></clipPath><clipPath id="5cae83353d"><path d="M 199.339844 25.285156 L 822.09375 239.128906 L 617.464844 835.035156 L -5.285156 621.191406 Z M 199.339844 25.285156 " clip-rule="nonzero"/></clipPath><clipPath id="f235007b69"><path d="M 785.4375 236 L 810 236 L 810 302 L 785.4375 302 Z M 785.4375 236 " clip-rule="nonzero"/></clipPath><clipPath id="0d66c40f9e"><path d="M 199.339844 25.285156 L 822.09375 239.128906 L 617.464844 835.035156 L -5.285156 621.191406 Z M 199.339844 25.285156 " clip-rule="nonzero"/></clipPath><clipPath id="2cb670f7f4"><path d="M 199.339844 25.285156 L 822.09375 239.128906 L 617.464844 835.035156 L -5.285156 621.191406 Z M 199.339844 25.285156 " clip-rule="nonzero"/></clipPath><clipPath id="f7947eafdd"><path d="M 199.339844 25.285156 L 822.09375 239.128906 L 617.464844 835.035156 L -5.285156 621.191406 Z M 199.339844 25.285156 " clip-rule="nonzero"/></clipPath><clipPath id="c54ad166b6"><path d="M 572 472.015625 L 606 472.015625 L 606 515.988281 L 572 515.988281 Z M 572 472.015625 " clip-rule="nonzero"/></clipPath><clipPath id="ab1638a64c"><path d="M 199.339844 25.285156 L 822.09375 239.128906 L 617.464844 835.035156 L -5.285156 621.191406 Z M 199.339844 25.285156 " clip-rule="nonzero"/></clipPath><clipPath id="9942ca6185"><path d="M 199.339844 25.285156 L 822.09375 239.128906 L 617.464844 835.035156 L -5.285156 621.191406 Z M 199.339844 25.285156 " clip-rule="nonzero"/></clipPath><clipPath id="0633d1b6fc"><path d="M 199.339844 25.285156 L 822.09375 239.128906 L 617.464844 835.035156 L -5.285156 621.191406 Z M 199.339844 25.285156 " clip-rule="nonzero"/></clipPath><clipPath id="a54e93c10d"><path d="M 502 533 L 548.894531 533 L 548.894531 567.542969 L 502 567.542969 Z M 502 533 " clip-rule="nonzero"/></clipPath><clipPath id="125ea0ee79"><path d="M 199.339844 25.285156 L 822.09375 239.128906 L 617.464844 835.035156 L -5.285156 621.191406 Z M 199.339844 25.285156 " clip-rule="nonzero"/></clipPath><clipPath id="b57ab10509"><path d="M 199.339844 25.285156 L 822.09375 239.128906 L 617.464844 835.035156 L -5.285156 621.191406 Z M 199.339844 25.285156 " clip-rule="nonzero"/></clipPath><clipPath id="977c63962a"><path d="M 199.339844 25.285156 L 822.09375 239.128906 L 617.464844 835.035156 L -5.285156 621.191406 Z M 199.339844 25.285156 " clip-rule="nonzero"/></clipPath><clipPath id="356a04e061"><path d="M 0 606 L 49 606 L 49 629.707031 L 0 629.707031 Z M 0 606 " clip-rule="nonzero"/></clipPath><clipPath id="7f211b7818"><path d="M 199.339844 25.285156 L 822.09375 239.128906 L 617.464844 835.035156 L -5.285156 621.191406 Z M 199.339844 25.285156 " clip-rule="nonzero"/></clipPath><clipPath id="36e59cdb90"><path d="M 199.339844 25.285156 L 822.09375 239.128906 L 617.464844 835.035156 L -5.285156 621.191406 Z M 199.339844 25.285156 " clip-rule="nonzero"/></clipPath><clipPath id="ce97c3eb9c"><path d="M 199.339844 25.285156 L 822.09375 239.128906 L 617.464844 835.035156 L -5.285156 621.191406 Z M 199.339844 25.285156 " clip-rule="nonzero"/></clipPath><clipPath id="f8a8a82270"><path d="M 741.464844 316 L 783.917969 316 L 783.917969 350 L 741.464844 350 Z M 741.464844 316 " clip-rule="nonzero"/></clipPath><clipPath id="8a5f594aba"><path d="M 199.339844 25.285156 L 822.09375 239.128906 L 617.464844 835.035156 L -5.285156 621.191406 Z M 199.339844 25.285156 " clip-rule="nonzero"/></clipPath><clipPath id="cbd9513a91"><path d="M 199.339844 25.285156 L 822.09375 239.128906 L 617.464844 835.035156 L -5.285156 621.191406 Z M 199.339844 25.285156 " clip-rule="nonzero"/></clipPath><clipPath id="1ff2aecef0"><path d="M 199.339844 25.285156 L 822.09375 239.128906 L 617.464844 835.035156 L -5.285156 621.191406 Z M 199.339844 25.285156 " clip-rule="nonzero"/></clipPath><clipPath id="e1395911e7"><path d="M 330 461.402344 L 363.910156 461.402344 L 363.910156 497.792969 L 330 497.792969 Z M 330 461.402344 " clip-rule="nonzero"/></clipPath><clipPath id="bb441c3a9f"><path d="M 199.339844 25.285156 L 822.09375 239.128906 L 617.464844 835.035156 L -5.285156 621.191406 Z M 199.339844 25.285156 " clip-rule="nonzero"/></clipPath><clipPath id="de09f1afd6"><path d="M 199.339844 25.285156 L 822.09375 239.128906 L 617.464844 835.035156 L -5.285156 621.191406 Z M 199.339844 25.285156 " clip-rule="nonzero"/></clipPath><clipPath id="935feddeb9"><path d="M 199.339844 25.285156 L 822.09375 239.128906 L 617.464844 835.035156 L -5.285156 621.191406 Z M 199.339844 25.285156 " clip-rule="nonzero"/></clipPath><clipPath id="8a8437323b"><path d="M 425 569.058594 L 471 569.058594 L 471 585.738281 L 425 585.738281 Z M 425 569.058594 " clip-rule="nonzero"/></clipPath><clipPath id="325989fb1d"><path d="M 199.339844 25.285156 L 822.09375 239.128906 L 617.464844 835.035156 L -5.285156 621.191406 Z M 199.339844 25.285156 " clip-rule="nonzero"/></clipPath><clipPath id="a4843aae37"><path d="M 199.339844 25.285156 L 822.09375 239.128906 L 617.464844 835.035156 L -5.285156 621.191406 Z M 199.339844 25.285156 " clip-rule="nonzero"/></clipPath><clipPath id="11ab596ecd"><path d="M 199.339844 25.285156 L 822.09375 239.128906 L 617.464844 835.035156 L -5.285156 621.191406 Z M 199.339844 25.285156 " clip-rule="nonzero"/></clipPath><clipPath id="f68ca452f8"><path d="M 217 607 L 259 607 L 259 628.191406 L 217 628.191406 Z M 217 607 " clip-rule="nonzero"/></clipPath><clipPath id="41eaf7e68d"><path d="M 199.339844 25.285156 L 822.09375 239.128906 L 617.464844 835.035156 L -5.285156 621.191406 Z M 199.339844 25.285156 " clip-rule="nonzero"/></clipPath><clipPath id="c60dfd2015"><path d="M 199.339844 25.285156 L 822.09375 239.128906 L 617.464844 835.035156 L -5.285156 621.191406 Z M 199.339844 25.285156 " clip-rule="nonzero"/></clipPath><clipPath id="012a544a3a"><path d="M 199.339844 25.285156 L 822.09375 239.128906 L 617.464844 835.035156 L -5.285156 621.191406 Z M 199.339844 25.285156 " clip-rule="nonzero"/></clipPath><clipPath id="cf6707e4bd"><path d="M 286.578125 574 L 321 574 L 321 603.933594 L 286.578125 603.933594 Z M 286.578125 574 " clip-rule="nonzero"/></clipPath><clipPath id="9ad9d4736a"><path d="M 199.339844 25.285156 L 822.09375 239.128906 L 617.464844 835.035156 L -5.285156 621.191406 Z M 199.339844 25.285156 " clip-rule="nonzero"/></clipPath><clipPath id="5aad4494e3"><path d="M 199.339844 25.285156 L 822.09375 239.128906 L 617.464844 835.035156 L -5.285156 621.191406 Z M 199.339844 25.285156 " clip-rule="nonzero"/></clipPath><clipPath id="66d4f5a771"><path d="M 199.339844 25.285156 L 822.09375 239.128906 L 617.464844 835.035156 L -5.285156 621.191406 Z M 199.339844 25.285156 " clip-rule="nonzero"/></clipPath><clipPath id="9ac294e709"><path d="M 337 519.019531 L 359 519.019531 L 359 558 L 337 558 Z M 337 519.019531 " clip-rule="nonzero"/></clipPath><clipPath id="19786f6192"><path d="M 199.339844 25.285156 L 822.09375 239.128906 L 617.464844 835.035156 L -5.285156 621.191406 Z M 199.339844 25.285156 " clip-rule="nonzero"/></clipPath><clipPath id="021a9ef5d2"><path d="M 199.339844 25.285156 L 822.09375 239.128906 L 617.464844 835.035156 L -5.285156 621.191406 Z M 199.339844 25.285156 " clip-rule="nonzero"/></clipPath><clipPath id="34b25265a3"><path d="M 199.339844 25.285156 L 822.09375 239.128906 L 617.464844 835.035156 L -5.285156 621.191406 Z M 199.339844 25.285156 " clip-rule="nonzero"/></clipPath><clipPath id="3179f8189a"><path d="M 83.394531 620.609375 L 122.820312 620.609375 L 122.820312 635.738281 L 83.394531 635.738281 Z M 83.394531 620.609375 " clip-rule="nonzero"/></clipPath><clipPath id="e4e31ec9cd"><path d="M 199.339844 25.285156 L 822.09375 239.128906 L 617.464844 835.035156 L -5.285156 621.191406 Z M 199.339844 25.285156 " clip-rule="nonzero"/></clipPath><clipPath id="da5d60bffe"><path d="M 199.339844 25.285156 L 822.09375 239.128906 L 617.464844 835.035156 L -5.285156 621.191406 Z M 199.339844 25.285156 " clip-rule="nonzero"/></clipPath><clipPath id="6c28532d36"><path d="M 199.339844 25.285156 L 822.09375 239.128906 L 617.464844 835.035156 L -5.285156 621.191406 Z M 199.339844 25.285156 " clip-rule="nonzero"/></clipPath><clipPath id="7ea4236126"><path d="M 275 468 L 303 468 L 303 490 L 275 490 Z M 275 468 " clip-rule="nonzero"/></clipPath><clipPath id="0a8b010c55"><path d="M 199.339844 25.285156 L 822.09375 239.128906 L 617.464844 835.035156 L -5.285156 621.191406 Z M 199.339844 25.285156 " clip-rule="nonzero"/></clipPath><clipPath id="41357c5f40"><path d="M 199.339844 25.285156 L 822.09375 239.128906 L 617.464844 835.035156 L -5.285156 621.191406 Z M 199.339844 25.285156 " clip-rule="nonzero"/></clipPath><clipPath id="73615bc04c"><path d="M 199.339844 25.285156 L 822.09375 239.128906 L 617.464844 835.035156 L -5.285156 621.191406 Z M 199.339844 25.285156 " clip-rule="nonzero"/></clipPath><clipPath id="18fe97ecb3"><path d="M 610 416 L 626.226562 416 L 626.226562 450 L 610 450 Z M 610 416 " clip-rule="nonzero"/></clipPath><clipPath id="5f78ff820a"><path d="M 199.339844 25.285156 L 822.09375 239.128906 L 617.464844 835.035156 L -5.285156 621.191406 Z M 199.339844 25.285156 " clip-rule="nonzero"/></clipPath><clipPath id="4da8ad40de"><path d="M 199.339844 25.285156 L 822.09375 239.128906 L 617.464844 835.035156 L -5.285156 621.191406 Z M 199.339844 25.285156 " clip-rule="nonzero"/></clipPath><clipPath id="0cb9156403"><path d="M 199.339844 25.285156 L 822.09375 239.128906 L 617.464844 835.035156 L -5.285156 621.191406 Z M 199.339844 25.285156 " clip-rule="nonzero"/></clipPath><clipPath id="62a51d0039"><path d="M 159 621 L 192.566406 621 L 192.566406 634.257812 L 159 634.257812 Z M 159 621 " clip-rule="nonzero"/></clipPath><clipPath id="9a640d288a"><path d="M 199.339844 25.285156 L 822.09375 239.128906 L 617.464844 835.035156 L -5.285156 621.191406 Z M 199.339844 25.285156 " clip-rule="nonzero"/></clipPath><clipPath id="d4a632989e"><path d="M 199.339844 25.285156 L 822.09375 239.128906 L 617.464844 835.035156 L -5.285156 621.191406 Z M 199.339844 25.285156 " clip-rule="nonzero"/></clipPath><clipPath id="975b31b7f0"><path d="M 199.339844 25.285156 L 822.09375 239.128906 L 617.464844 835.035156 L -5.285156 621.191406 Z M 199.339844 25.285156 " clip-rule="nonzero"/></clipPath><clipPath id="02b4328ce3"><path d="M 270 520.535156 L 294 520.535156 L 294 550.863281 L 270 550.863281 Z M 270 520.535156 " clip-rule="nonzero"/></clipPath><clipPath id="24199338a4"><path d="M 199.339844 25.285156 L 822.09375 239.128906 L 617.464844 835.035156 L -5.285156 621.191406 Z M 199.339844 25.285156 " clip-rule="nonzero"/></clipPath><clipPath id="d3e6cd9cf1"><path d="M 199.339844 25.285156 L 822.09375 239.128906 L 617.464844 835.035156 L -5.285156 621.191406 Z M 199.339844 25.285156 " clip-rule="nonzero"/></clipPath><clipPath id="6df81be1e2"><path d="M 199.339844 25.285156 L 822.09375 239.128906 L 617.464844 835.035156 L -5.285156 621.191406 Z M 199.339844 25.285156 " clip-rule="nonzero"/></clipPath><clipPath id="e6492dc397"><path d="M 362 575.121094 L 393 575.121094 L 393 590 L 362 590 Z M 362 575.121094 " clip-rule="nonzero"/></clipPath><clipPath id="aa282266bc"><path d="M 199.339844 25.285156 L 822.09375 239.128906 L 617.464844 835.035156 L -5.285156 621.191406 Z M 199.339844 25.285156 " clip-rule="nonzero"/></clipPath><clipPath id="33923d16c9"><path d="M 199.339844 25.285156 L 822.09375 239.128906 L 617.464844 835.035156 L -5.285156 621.191406 Z M 199.339844 25.285156 " clip-rule="nonzero"/></clipPath><clipPath id="a607737ed8"><path d="M 199.339844 25.285156 L 822.09375 239.128906 L 617.464844 835.035156 L -5.285156 621.191406 Z M 199.339844 25.285156 " clip-rule="nonzero"/></clipPath><clipPath id="f18a05ca67"><path d="M 557 201 L 586.800781 201 L 586.800781 256 L 557 256 Z M 557 201 " clip-rule="nonzero"/></clipPath><clipPath id="a03dde3622"><path d="M 199.339844 25.285156 L 822.09375 239.128906 L 617.464844 835.035156 L -5.285156 621.191406 Z M 199.339844 25.285156 " clip-rule="nonzero"/></clipPath><clipPath id="5f8fc2d732"><path d="M 199.339844 25.285156 L 822.09375 239.128906 L 617.464844 835.035156 L -5.285156 621.191406 Z M 199.339844 25.285156 " clip-rule="nonzero"/></clipPath><clipPath id="34b4386219"><path d="M 199.339844 25.285156 L 822.09375 239.128906 L 617.464844 835.035156 L -5.285156 621.191406 Z M 199.339844 25.285156 " clip-rule="nonzero"/></clipPath></defs><g clip-path="url(#e1f34588fa)"><g clip-path="url(#32209b9260)"><g clip-path="url(#bef69d0efe)"><g clip-path="url(#520e91e738)"><path fill="#6e8b19" d="M 769.871094 255.875 C 769.632812 236.539062 741.382812 234.003906 717.6875 245.003906 C 662.378906 270.675781 660.675781 312.382812 647.574219 304.945312 C 643.949219 302.890625 644.261719 298.773438 644.148438 290.464844 C 642.945312 200.730469 563.507812 154.40625 543.726562 217.988281 C 531.101562 258.5625 547.570312 293.152344 567.949219 329.734375 C 576.542969 345.167969 596.425781 373.25 612.207031 382.246094 C 630.851562 392.867188 770.4375 303.628906 769.871094 255.875 Z M 607.703125 393.671875 C 577.804688 374.316406 554.230469 333.71875 539.839844 301.363281 C 505.214844 223.515625 548.132812 150.835938 605.0625 184.867188 C 653.785156 213.984375 651.855469 284.121094 659.695312 275.574219 C 672.148438 262.007812 687.269531 243.109375 721.972656 230.246094 C 757.667969 217.019531 793.6875 237.445312 779.363281 270.699219 C 753.386719 331.007812 629.769531 407.953125 607.703125 393.671875 " fill-opacity="1" fill-rule="nonzero"/></g></g></g></g><g clip-path="url(#badc0f1184)"><g clip-path="url(#b30d44193f)"><g clip-path="url(#24e5c5ae15)"><g clip-path="url(#5cae83353d)"><path fill="#6e8b19" d="M 513.445312 277.617188 C 519.476562 281.964844 511.472656 281 520.027344 305.367188 C 524.660156 318.554688 531.410156 332.5 541.527344 342.226562 C 550.75 351.089844 543.832031 359.703125 535.066406 352.472656 C 509.441406 331.351562 493.757812 272.464844 513.445312 277.617188 " fill-opacity="1" fill-rule="nonzero"/></g></g></g></g><g clip-path="url(#f235007b69)"><g clip-path="url(#0d66c40f9e)"><g clip-path="url(#2cb670f7f4)"><g clip-path="url(#f7947eafdd)"><path fill="#6e8b19" d="M 800.449219 290.257812 C 797.578125 295.585938 793.777344 304.140625 788.121094 301.03125 C 786.941406 300.382812 784.078125 296.980469 786.507812 291.742188 C 791.738281 280.449219 794.160156 278.167969 797.074219 264.398438 C 799.824219 251.417969 795.445312 246.253906 794.125 242.671875 C 792.347656 237.863281 799.554688 233.332031 804.449219 238.703125 C 808.347656 242.984375 810.035156 250.636719 809.945312 256.523438 C 809.679688 273.464844 804 282.960938 800.449219 290.257812 " fill-opacity="1" fill-rule="nonzero"/></g></g></g></g><g clip-path="url(#c54ad166b6)"><g clip-path="url(#ab1638a64c)"><g clip-path="url(#9942ca6185)"><g clip-path="url(#0633d1b6fc)"><path fill="#6e8b19" d="M 582.46875 495.785156 C 589.113281 485.1875 591.742188 480.90625 595.714844 474.910156 C 597.246094 472.601562 603.386719 470.953125 605.144531 476.742188 C 607.777344 485.40625 587.449219 511.363281 578.605469 515.082031 C 576.496094 515.96875 572.273438 514.359375 572.628906 510.945312 C 573.027344 507.167969 571.472656 509.832031 582.46875 495.785156 " fill-opacity="1" fill-rule="nonzero"/></g></g></g></g><g clip-path="url(#a54e93c10d)"><g clip-path="url(#125ea0ee79)"><g clip-path="url(#b57ab10509)"><g clip-path="url(#977c63962a)"><path fill="#6e8b19" d="M 548.15625 541.3125 C 542.9375 550.726562 507.671875 574.625 502.59375 565.386719 C 501.992188 564.285156 502.234375 561.210938 503 560.433594 C 506.378906 557.011719 514.632812 552.347656 517.308594 550.925781 C 533.085938 542.511719 534.265625 537.03125 541.082031 533.855469 C 546.847656 531.175781 550.464844 538.1875 548.15625 541.3125 " fill-opacity="1" fill-rule="nonzero"/></g></g></g></g><g clip-path="url(#356a04e061)"><g clip-path="url(#7f211b7818)"><g clip-path="url(#36e59cdb90)"><g clip-path="url(#ce97c3eb9c)"><path fill="#6e8b19" d="M 7.871094 619.691406 C 1.734375 614.890625 1.515625 615.359375 0.632812 611.144531 C -0.105469 607.617188 4.734375 605.976562 6.203125 606.46875 C 13.25 608.832031 20.148438 613.902344 42.066406 618.285156 C 54.675781 620.804688 53.308594 641.371094 7.871094 619.691406 " fill-opacity="1" fill-rule="nonzero"/></g></g></g></g><g clip-path="url(#f8a8a82270)"><g clip-path="url(#8a5f594aba)"><g clip-path="url(#cbd9513a91)"><g clip-path="url(#1ff2aecef0)"><path fill="#6e8b19" d="M 743.921875 349.171875 C 741.777344 348.128906 740.449219 343.609375 743.773438 340.339844 C 747.535156 336.632812 759.589844 330.542969 772.796875 319.113281 C 781.285156 311.761719 792.710938 320.292969 769.320312 337.253906 C 751.445312 350.226562 748.476562 351.140625 743.921875 349.171875 " fill-opacity="1" fill-rule="nonzero"/></g></g></g></g><g clip-path="url(#e1395911e7)"><g clip-path="url(#bb441c3a9f)"><g clip-path="url(#de09f1afd6)"><g clip-path="url(#935feddeb9)"><path fill="#6e8b19" d="M 354.136719 495.960938 C 353.292969 494.476562 352.625 492.894531 351.765625 491.417969 C 343.925781 477.957031 324.628906 472.128906 331.605469 462.941406 C 332.636719 461.585938 336.664062 461.097656 338 462.023438 C 379.894531 490.96875 357.800781 502.421875 354.136719 495.960938 " fill-opacity="1" fill-rule="nonzero"/></g></g></g></g><g clip-path="url(#8a8437323b)"><g clip-path="url(#325989fb1d)"><g clip-path="url(#a4843aae37)"><g clip-path="url(#11ab596ecd)"><path fill="#6e8b19" d="M 469.25 579.75 C 470.242188 577.539062 458.480469 586.703125 435.167969 585.003906 C 422.710938 584.089844 424.070312 575.507812 429.328125 574.386719 C 434.949219 573.1875 444.847656 574.382812 461.839844 569.785156 C 469.117188 567.824219 472.464844 572.617188 469.25 579.75 " fill-opacity="1" fill-rule="nonzero"/></g></g></g></g><g clip-path="url(#f68ca452f8)"><g clip-path="url(#41eaf7e68d)"><g clip-path="url(#c60dfd2015)"><g clip-path="url(#012a544a3a)"><path fill="#6e8b19" d="M 220.222656 627.132812 C 215.875 623.648438 217.839844 619.585938 220.058594 618.894531 C 241.328125 612.300781 228.457031 617.035156 250.558594 608.183594 C 257.082031 605.566406 262.597656 614.503906 254.144531 619.160156 C 245.199219 624.089844 229.960938 630.394531 220.222656 627.132812 " fill-opacity="1" fill-rule="nonzero"/></g></g></g></g><g clip-path="url(#cf6707e4bd)"><g clip-path="url(#9ad9d4736a)"><g clip-path="url(#5aad4494e3)"><g clip-path="url(#66d4f5a771)"><path fill="#6e8b19" d="M 289.949219 603.640625 C 288.015625 602.941406 286.65625 600.496094 287.027344 599.144531 C 288.480469 593.917969 287.414062 597.480469 309.199219 578.035156 C 312.160156 575.394531 314.996094 573.617188 318.3125 575.804688 C 328.808594 582.714844 297.097656 606.320312 289.949219 603.640625 " fill-opacity="1" fill-rule="nonzero"/></g></g></g></g><g clip-path="url(#9ac294e709)"><g clip-path="url(#19786f6192)"><g clip-path="url(#021a9ef5d2)"><g clip-path="url(#34b25265a3)"><path fill="#6e8b19" d="M 345.351562 556.773438 C 342.792969 559.296875 337.816406 556.589844 337.976562 553 C 338.085938 550.554688 337.628906 550.1875 342.101562 541.859375 C 348.195312 530.511719 344.636719 526.867188 349.890625 521.074219 C 351.875 518.882812 356.078125 518.71875 357.292969 521.128906 C 357.808594 522.140625 358.742188 523.171875 358.730469 524.191406 C 358.59375 536.777344 354.066406 548.195312 345.351562 556.773438 " fill-opacity="1" fill-rule="nonzero"/></g></g></g></g><g clip-path="url(#3179f8189a)"><g clip-path="url(#e4e31ec9cd)"><g clip-path="url(#da5d60bffe)"><g clip-path="url(#6c28532d36)"><path fill="#6e8b19" d="M 86.523438 630.609375 C 81.039062 625.757812 85.191406 620.292969 88.621094 620.695312 C 110.132812 623.234375 93.3125 621.664062 112.390625 622.558594 C 124.96875 623.144531 123.386719 635.109375 118.234375 635.050781 C 112.351562 634.980469 92.0625 634.304688 86.523438 630.609375 " fill-opacity="1" fill-rule="nonzero"/></g></g></g></g><g clip-path="url(#7ea4236126)"><g clip-path="url(#0a8b010c55)"><g clip-path="url(#41357c5f40)"><g clip-path="url(#73615bc04c)"><path fill="#6e8b19" d="M 302.441406 475.699219 C 299.84375 478.773438 295.089844 478.507812 284.453125 488.707031 C 282.703125 490.382812 278.546875 489.796875 277.925781 489.191406 C 269.636719 481.179688 289.007812 466.042969 299.265625 468.871094 C 301.722656 469.546875 303.476562 471.867188 302.441406 475.699219 " fill-opacity="1" fill-rule="nonzero"/></g></g></g></g><g clip-path="url(#18fe97ecb3)"><g clip-path="url(#5f78ff820a)"><g clip-path="url(#4da8ad40de)"><g clip-path="url(#0cb9156403)"><path fill="#6e8b19" d="M 618.738281 447.890625 C 613.136719 452.148438 609.96875 447.125 610.417969 444.863281 C 615.40625 419.757812 614.894531 420.003906 618.023438 417.386719 C 620.78125 415.070312 626.433594 417.347656 626.191406 422.214844 C 625.753906 431.160156 626.113281 430.9375 620.730469 445.195312 C 620.351562 446.207031 619.410156 447.007812 618.738281 447.890625 " fill-opacity="1" fill-rule="nonzero"/></g></g></g></g><g clip-path="url(#62a51d0039)"><g clip-path="url(#9a640d288a)"><g clip-path="url(#d4a632989e)"><g clip-path="url(#975b31b7f0)"><path fill="#6e8b19" d="M 159.167969 628.980469 C 159.234375 627.773438 160.953125 625.078125 161.875 624.738281 C 166.726562 622.949219 181.511719 620.386719 189.15625 621.820312 C 193.25 622.582031 193.675781 630.507812 187.480469 632.070312 C 179.875 633.996094 158.746094 636.96875 159.167969 628.980469 " fill-opacity="1" fill-rule="nonzero"/></g></g></g></g><g clip-path="url(#02b4328ce3)"><g clip-path="url(#24199338a4)"><g clip-path="url(#d3e6cd9cf1)"><g clip-path="url(#6df81be1e2)"><path fill="#6e8b19" d="M 292.738281 546.53125 C 287.464844 559.914062 262.714844 533.378906 273.410156 522.125 C 275.371094 520.0625 279.652344 520.59375 280.714844 523.019531 C 282.308594 526.679688 282.046875 531.054688 285.054688 534.175781 C 292.398438 541.792969 294.164062 542.90625 292.738281 546.53125 " fill-opacity="1" fill-rule="nonzero"/></g></g></g></g><g clip-path="url(#e6492dc397)"><g clip-path="url(#aa282266bc)"><g clip-path="url(#33923d16c9)"><g clip-path="url(#a607737ed8)"><path fill="#6e8b19" d="M 369.0625 587.507812 C 358.042969 581.707031 363.167969 575.519531 365.660156 575.734375 C 375.996094 576.628906 366.675781 576.542969 386.195312 577.730469 C 394.257812 578.226562 395.625 588.242188 386.722656 589.160156 C 372.933594 590.582031 363.777344 584.582031 369.0625 587.507812 " fill-opacity="1" fill-rule="nonzero"/></g></g></g></g><g clip-path="url(#f18a05ca67)"><g clip-path="url(#a03dde3622)"><g clip-path="url(#5f8fc2d732)"><g clip-path="url(#34b4386219)"><path fill="#6e8b19" d="M 562.554688 215.648438 C 566.191406 208.09375 575.878906 201.0625 582.089844 201.996094 C 585.199219 202.460938 588.09375 207.015625 585.050781 209.734375 C 578.929688 215.207031 573.554688 217 571.042969 226.488281 C 568.226562 237.113281 570.65625 246.703125 569.253906 252.136719 C 567.882812 257.425781 559.925781 255.613281 558.769531 251.53125 C 556.683594 244.1875 556.199219 227.464844 562.554688 215.648438 " fill-opacity="1" fill-rule="nonzero"/></g></g></g></g></svg>