<svg xmlns="http://www.w3.org/2000/svg" xmlns:xlink="http://www.w3.org/1999/xlink" width="1122" zoomAndPan="magnify" viewBox="0 0 841.92 595.499987" height="793" preserveAspectRatio="xMidYMid meet" version="1.0"><defs><clipPath id="9b988af301"><path d="M 123.515625 294 L 155 294 L 155 301 L 123.515625 301 Z M 123.515625 294 " clip-rule="nonzero"/></clipPath><clipPath id="4b82012687"><path d="M 687 294 L 718.515625 294 L 718.515625 301 L 687 301 Z M 687 294 " clip-rule="nonzero"/></clipPath></defs><path fill="#c21e65" d="M 419.710938 9.464844 L 422.046875 9.464844 L 422.046875 21.269531 L 419.710938 21.269531 Z M 419.710938 9.464844 " fill-opacity="1" fill-rule="nonzero"/><path fill="#c21e65" d="M 417.828125 0 L 423.972656 0 L 423.972656 30.734375 L 417.828125 30.734375 Z M 417.828125 0 " fill-opacity="1" fill-rule="nonzero"/><path fill="#c21e65" d="M 417.828125 564.03125 L 423.972656 564.03125 L 423.972656 594.765625 L 417.828125 594.765625 Z M 417.828125 564.03125 " fill-opacity="1" fill-rule="nonzero"/><path fill="#c21e65" d="M 369.722656 14.039062 L 372.023438 13.632812 L 374.074219 25.257812 L 371.773438 25.664062 Z M 369.722656 14.039062 " fill-opacity="1" fill-rule="nonzero"/><path fill="#c21e65" d="M 467.675781 569.5 L 469.976562 569.097656 L 472.023438 580.71875 L 469.722656 581.125 Z M 467.675781 569.5 " fill-opacity="1" fill-rule="nonzero"/><path fill="#c21e65" d="M 321.339844 27.230469 L 323.535156 26.433594 L 327.570312 37.523438 L 325.375 38.320312 Z M 321.339844 27.230469 " fill-opacity="1" fill-rule="nonzero"/><path fill="#c21e65" d="M 514.21875 557.265625 L 516.414062 556.46875 L 520.449219 567.558594 L 518.253906 568.355469 Z M 514.21875 557.265625 " fill-opacity="1" fill-rule="nonzero"/><path fill="#c21e65" d="M 275.90625 48.628906 L 277.929688 47.460938 L 283.828125 57.679688 L 281.804688 58.847656 Z M 275.90625 48.628906 " fill-opacity="1" fill-rule="nonzero"/><path fill="#c21e65" d="M 557.914062 537.085938 L 559.9375 535.917969 L 565.835938 546.136719 L 563.816406 547.304688 Z M 557.914062 537.085938 " fill-opacity="1" fill-rule="nonzero"/><path fill="#c21e65" d="M 234.9375 77.5625 L 236.726562 76.0625 L 244.3125 85.101562 L 242.523438 86.601562 Z M 234.9375 77.5625 " fill-opacity="1" fill-rule="nonzero"/><path fill="#c21e65" d="M 597.480469 509.640625 L 599.269531 508.136719 L 606.859375 517.179688 L 605.066406 518.679688 Z M 597.480469 509.640625 " fill-opacity="1" fill-rule="nonzero"/><path fill="#c21e65" d="M 199.589844 113.203125 L 201.089844 111.414062 L 210.132812 119 L 208.628906 120.789062 Z M 199.589844 113.203125 " fill-opacity="1" fill-rule="nonzero"/><path fill="#c21e65" d="M 631.664062 475.835938 L 633.164062 474.046875 L 642.203125 481.632812 L 640.703125 483.421875 Z M 631.664062 475.835938 " fill-opacity="1" fill-rule="nonzero"/><path fill="#c21e65" d="M 170.957031 154.457031 L 172.125 152.433594 L 182.34375 158.335938 L 181.175781 160.359375 Z M 170.957031 154.457031 " fill-opacity="1" fill-rule="nonzero"/><path fill="#c21e65" d="M 659.414062 436.488281 L 660.582031 434.464844 L 670.804688 440.367188 L 669.636719 442.386719 Z M 659.414062 436.488281 " fill-opacity="1" fill-rule="nonzero"/><path fill="#c21e65" d="M 149.929688 200.015625 L 150.730469 197.820312 L 161.820312 201.859375 L 161.019531 204.050781 Z M 149.929688 200.015625 " fill-opacity="1" fill-rule="nonzero"/><path fill="#c21e65" d="M 679.957031 392.925781 L 680.753906 390.730469 L 691.84375 394.765625 L 691.046875 396.960938 Z M 679.957031 392.925781 " fill-opacity="1" fill-rule="nonzero"/><path fill="#c21e65" d="M 137.144531 248.523438 L 137.550781 246.222656 L 149.175781 248.269531 L 148.769531 250.570312 Z M 137.144531 248.523438 " fill-opacity="1" fill-rule="nonzero"/><path fill="#c21e65" d="M 692.578125 346.460938 L 692.984375 344.160156 L 704.609375 346.210938 L 704.203125 348.511719 Z M 692.578125 346.460938 " fill-opacity="1" fill-rule="nonzero"/><g clip-path="url(#9b988af301)"><path fill="#c21e65" d="M 123.515625 294.308594 L 154.25 294.308594 L 154.25 300.457031 L 123.515625 300.457031 Z M 123.515625 294.308594 " fill-opacity="1" fill-rule="nonzero"/></g><g clip-path="url(#4b82012687)"><path fill="#c21e65" d="M 687.550781 294.308594 L 718.28125 294.308594 L 718.28125 300.457031 L 687.550781 300.457031 Z M 687.550781 294.308594 " fill-opacity="1" fill-rule="nonzero"/></g><path fill="#c21e65" d="M 269.539062 41.375 L 274.863281 38.300781 L 290.230469 64.917969 L 284.90625 67.988281 Z M 269.539062 41.375 " fill-opacity="1" fill-rule="nonzero"/><path fill="#c21e65" d="M 551.546875 529.828125 L 556.871094 526.753906 L 572.238281 553.371094 L 566.914062 556.445312 Z M 551.546875 529.828125 " fill-opacity="1" fill-rule="nonzero"/><path fill="#c21e65" d="M 161.816406 443.398438 L 188.433594 428.03125 L 191.507812 433.355469 L 164.890625 448.722656 Z M 161.816406 443.398438 " fill-opacity="1" fill-rule="nonzero"/><path fill="#c21e65" d="M 650.273438 161.390625 L 676.890625 146.023438 L 679.960938 151.347656 L 653.347656 166.714844 Z M 650.273438 161.390625 " fill-opacity="1" fill-rule="nonzero"/><path fill="#c21e65" d="M 161.816406 151.355469 L 164.886719 146.035156 L 191.503906 161.402344 L 188.429688 166.722656 Z M 161.816406 151.355469 " fill-opacity="1" fill-rule="nonzero"/><path fill="#c21e65" d="M 650.273438 433.386719 L 653.347656 428.0625 L 679.964844 443.429688 L 676.890625 448.753906 Z M 650.273438 433.386719 " fill-opacity="1" fill-rule="nonzero"/><path fill="#c21e65" d="M 269.53125 553.394531 L 284.894531 526.777344 L 290.21875 529.851562 L 274.851562 556.46875 Z M 269.53125 553.394531 " fill-opacity="1" fill-rule="nonzero"/><path fill="#c21e65" d="M 551.558594 64.933594 L 566.925781 38.320312 L 572.25 41.390625 L 556.882812 68.007812 Z M 551.558594 64.933594 " fill-opacity="1" fill-rule="nonzero"/><path fill="#c21e65" d="M 137.113281 346.253906 L 148.734375 344.203125 L 149.140625 346.503906 L 137.519531 348.554688 Z M 137.113281 346.253906 " fill-opacity="1" fill-rule="nonzero"/><path fill="#c21e65" d="M 692.574219 248.300781 L 704.195312 246.25 L 704.601562 248.550781 L 692.980469 250.601562 Z M 692.574219 248.300781 " fill-opacity="1" fill-rule="nonzero"/><path fill="#c21e65" d="M 149.933594 394.753906 L 161.023438 390.71875 L 161.820312 392.914062 L 150.730469 396.949219 Z M 149.933594 394.753906 " fill-opacity="1" fill-rule="nonzero"/><path fill="#c21e65" d="M 679.96875 201.875 L 691.058594 197.839844 L 691.855469 200.035156 L 680.765625 204.070312 Z M 679.96875 201.875 " fill-opacity="1" fill-rule="nonzero"/><path fill="#c21e65" d="M 170.957031 440.296875 L 181.179688 434.398438 L 182.347656 436.421875 L 172.125 442.320312 Z M 170.957031 440.296875 " fill-opacity="1" fill-rule="nonzero"/><path fill="#c21e65" d="M 659.414062 158.289062 L 669.632812 152.390625 L 670.800781 154.410156 L 660.582031 160.3125 Z M 659.414062 158.289062 " fill-opacity="1" fill-rule="nonzero"/><path fill="#c21e65" d="M 199.589844 481.542969 L 208.628906 473.953125 L 210.128906 475.746094 L 201.089844 483.332031 Z M 199.589844 481.542969 " fill-opacity="1" fill-rule="nonzero"/><path fill="#c21e65" d="M 631.664062 118.996094 L 640.707031 111.410156 L 642.207031 113.199219 L 633.167969 120.785156 Z M 631.664062 118.996094 " fill-opacity="1" fill-rule="nonzero"/><path fill="#c21e65" d="M 234.894531 517.222656 L 242.480469 508.183594 L 244.269531 509.683594 L 236.683594 518.722656 Z M 234.894531 517.222656 " fill-opacity="1" fill-rule="nonzero"/><path fill="#c21e65" d="M 597.527344 85.148438 L 605.113281 76.109375 L 606.902344 77.609375 L 599.316406 86.652344 Z M 597.527344 85.148438 " fill-opacity="1" fill-rule="nonzero"/><path fill="#c21e65" d="M 275.894531 546.140625 L 281.796875 535.917969 L 283.820312 537.085938 L 277.917969 547.308594 Z M 275.894531 546.140625 " fill-opacity="1" fill-rule="nonzero"/><path fill="#c21e65" d="M 557.925781 57.679688 L 563.824219 47.460938 L 565.847656 48.628906 L 559.949219 58.847656 Z M 557.925781 57.679688 " fill-opacity="1" fill-rule="nonzero"/><path fill="#c21e65" d="M 321.304688 567.523438 L 325.339844 556.433594 L 327.535156 557.230469 L 323.5 568.320312 Z M 321.304688 567.523438 " fill-opacity="1" fill-rule="nonzero"/><path fill="#c21e65" d="M 514.214844 37.496094 L 518.25 26.40625 L 520.445312 27.207031 L 516.410156 38.296875 Z M 514.214844 37.496094 " fill-opacity="1" fill-rule="nonzero"/><path fill="#c21e65" d="M 369.730469 580.691406 L 371.78125 569.070312 L 374.082031 569.476562 L 372.03125 581.097656 Z M 369.730469 580.691406 " fill-opacity="1" fill-rule="nonzero"/><path fill="#c21e65" d="M 467.671875 25.257812 L 469.722656 13.636719 L 472.023438 14.042969 L 469.972656 25.664062 Z M 467.671875 25.257812 " fill-opacity="1" fill-rule="nonzero"/></svg>