<svg xmlns="http://www.w3.org/2000/svg" xmlns:xlink="http://www.w3.org/1999/xlink" width="1080" zoomAndPan="magnify" viewBox="0 0 810 809.999993" height="1080" preserveAspectRatio="xMidYMid meet" version="1.0"><path fill="#8c0444" d="M 463.492188 153.851562 C 463.640625 153.753906 463.792969 153.660156 463.941406 153.5625 C 466.546875 151.84375 465.667969 147.457031 462.296875 147.492188 C 451.414062 147.605469 440.410156 147.296875 429.558594 148.15625 C 426.898438 148.367188 424.234375 148.53125 421.574219 148.683594 C 412.269531 148.945312 402.96875 149.117188 393.667969 149.574219 C 387.773438 149.863281 381.886719 150.261719 376 150.628906 C 373.746094 150.769531 372.714844 152.742188 372.898438 154.480469 C 372.851562 156.144531 373.882812 157.742188 376.011719 157.5625 C 386.855469 156.632812 397.609375 156.070312 408.492188 155.777344 C 413.28125 155.648438 418.054688 155.390625 422.824219 155.125 C 429.734375 154.90625 436.644531 154.640625 443.550781 154.277344 C 444.824219 154.210938 446.097656 154.1875 447.367188 154.171875 C 447.8125 154.164062 448.257812 154.160156 448.699219 154.15625 C 449.445312 154.152344 450.195312 154.164062 450.941406 154.175781 C 448.363281 155.777344 445.761719 157.34375 443.09375 158.84375 C 440.464844 160.320312 437.914062 161.675781 435.167969 162.910156 C 432.183594 164.25 428.984375 165.390625 426.164062 167.050781 C 422.6875 169.101562 419.347656 171.40625 415.832031 173.386719 C 412.878906 175.054688 409.6875 176.382812 406.632812 177.859375 C 405.894531 178.214844 405.148438 178.558594 404.417969 178.929688 C 404.351562 178.960938 404.328125 178.976562 404.28125 179 C 402.429688 179.613281 400.613281 180.386719 398.789062 181.078125 C 395.964844 182.148438 393.164062 183.246094 390.285156 184.164062 C 386.574219 185.347656 382.375 186.160156 378.90625 187.960938 C 375.226562 189.871094 371.644531 192.007812 368.023438 194.027344 C 366.675781 194.777344 366.269531 196.289062 366.523438 197.703125 C 367.222656 201.585938 367.925781 205.464844 368.625 209.34375 C 368.957031 211.183594 369.480469 212.984375 370.046875 214.777344 C 369.652344 215.117188 369.265625 215.464844 368.871094 215.804688 C 368.015625 216.539062 367.730469 217.921875 368.03125 218.972656 C 369.527344 224.167969 370.921875 229.371094 372.765625 234.453125 C 373.742188 237.140625 374.910156 239.828125 375.703125 242.574219 C 376.652344 245.863281 377.25 249.292969 378.015625 252.628906 C 379.132812 257.496094 381.226562 262.132812 382.941406 266.820312 C 384.953125 272.324219 387.007812 277.589844 388.164062 283.328125 C 388.875 286.863281 389.503906 290.402344 390.101562 293.945312 C 387.035156 291.40625 383.984375 288.855469 380.949219 286.28125 C 377.152344 282.707031 373.351562 279.132812 369.53125 275.582031 C 365.582031 271.910156 362.460938 267.492188 358.789062 263.554688 C 354.558594 259.023438 350.101562 254.808594 346.078125 250.089844 C 342.214844 245.558594 338.183594 241.28125 334.058594 237.011719 C 333.363281 236.128906 332.671875 235.25 331.972656 234.359375 C 330.953125 233.054688 328.394531 233.125 327.367188 234.359375 C 322.820312 239.828125 318.265625 245.261719 313.550781 250.585938 C 311.382812 253.042969 309.414062 255.398438 307.582031 258.109375 C 305.746094 260.828125 303.980469 263.628906 302.03125 266.277344 C 297.011719 271.820312 292.292969 277.585938 287.605469 283.414062 C 283.722656 288.246094 280.378906 293.464844 276.644531 298.40625 C 275.023438 300.546875 273.40625 302.6875 271.789062 304.828125 C 271.199219 305.609375 270.605469 306.382812 270.023438 307.164062 C 269.980469 307.207031 269.941406 307.242188 269.867188 307.316406 C 269.722656 307.464844 269.589844 307.625 269.445312 307.773438 C 270.085938 304.871094 270.707031 301.960938 271.261719 299.027344 C 271.855469 295.90625 272.421875 292.910156 273.351562 289.878906 C 274.417969 286.390625 275.5625 282.917969 276.542969 279.40625 C 280.347656 265.753906 283.21875 251.882812 287.660156 238.410156 C 290.339844 230.289062 293.171875 222.292969 296.171875 214.285156 C 296.660156 212.992188 295.859375 211.242188 294.675781 210.605469 C 289.320312 207.726562 283.980469 204.828125 278.566406 202.066406 C 275.699219 200.609375 272.863281 198.941406 269.878906 197.730469 C 266.320312 196.285156 262.734375 194.90625 259.160156 193.496094 C 258.683594 193.304688 258.207031 193.109375 257.722656 192.925781 C 257.683594 192.902344 257.660156 192.886719 257.597656 192.851562 C 255.992188 191.984375 254.316406 191.222656 252.683594 190.40625 C 250.128906 189.136719 247.605469 187.78125 244.996094 186.625 C 238.878906 183.914062 232.761719 181.25 226.710938 178.390625 C 223.824219 177.027344 221.003906 175.597656 217.984375 174.554688 C 217.816406 174.496094 217.648438 174.4375 217.476562 174.378906 C 217.507812 174.375 217.535156 174.367188 217.5625 174.359375 C 218.136719 174.230469 218.914062 174.195312 219.445312 173.9375 C 219.453125 173.933594 219.453125 173.933594 219.460938 173.929688 C 219.5 173.921875 219.542969 173.917969 219.582031 173.914062 C 221.746094 173.652344 223.910156 173.378906 226.078125 173.113281 C 232.332031 172.34375 238.640625 171.441406 244.933594 171.082031 C 252.394531 170.652344 259.84375 170.390625 267.300781 169.867188 C 270.425781 169.648438 273.492188 169.210938 276.597656 168.777344 C 278.722656 168.480469 280.84375 168.183594 282.964844 167.890625 C 283.035156 167.878906 283.097656 167.875 283.160156 167.871094 C 283.148438 167.867188 283.144531 167.867188 283.132812 167.867188 C 283.144531 167.867188 283.160156 167.867188 283.171875 167.867188 C 283.460938 167.84375 283.660156 167.863281 283.738281 167.882812 C 284.246094 167.855469 284.785156 167.75 285.238281 167.71875 C 293.257812 167.160156 301.152344 166.933594 309.195312 166.871094 C 310.523438 166.863281 312.078125 165.875 312.335938 164.480469 C 313.773438 156.769531 315.101562 149.171875 315.996094 141.378906 C 316.765625 134.6875 317.789062 127.792969 317.667969 121.0625 C 317.621094 118.5625 317.574219 116.066406 317.53125 113.566406 C 317.507812 112.476562 317.488281 111.390625 317.46875 110.300781 C 317.464844 109.949219 317.484375 109.578125 317.449219 109.222656 C 318.027344 107.746094 318.242188 105.945312 318.621094 104.441406 C 319.21875 102.070312 319.816406 99.695312 320.414062 97.324219 C 321.324219 93.707031 321.148438 89.742188 321.371094 86.042969 C 321.429688 85.007812 321.492188 83.976562 321.554688 82.941406 C 321.566406 82.726562 321.582031 82.5 321.59375 82.277344 C 322.230469 80.863281 322.3125 78.808594 322.628906 77.328125 C 323.453125 73.480469 324.082031 69.539062 325.246094 65.773438 C 325.632812 64.527344 326.019531 63.28125 326.402344 62.03125 C 327.511719 65.621094 328.601562 69.21875 329.644531 72.835938 C 330.539062 75.941406 331.453125 78.746094 332.808594 81.664062 C 333.847656 83.902344 334.882812 86.136719 335.921875 88.375 C 336.25 89.074219 336.558594 89.789062 336.898438 90.480469 C 336.914062 90.542969 336.925781 90.601562 336.957031 90.714844 C 337.21875 91.699219 337.523438 92.667969 337.808594 93.640625 C 338.480469 96.730469 339.316406 99.851562 340.207031 102.820312 C 341.203125 106.132812 342.828125 109.347656 344.136719 112.550781 C 345.605469 116.132812 347.003906 119.78125 348.277344 123.460938 C 348.644531 124.589844 349.019531 125.71875 349.394531 126.84375 C 349.726562 127.886719 350.058594 128.925781 350.359375 129.976562 C 351.445312 133.769531 352.277344 137.765625 353.699219 141.449219 C 354.640625 143.886719 355.671875 146.292969 356.710938 148.699219 C 357.222656 150.3125 357.75 151.914062 358.25 153.535156 C 358.820312 155.394531 360.484375 156.007812 361.980469 155.738281 C 362.222656 155.730469 362.46875 155.699219 362.722656 155.632812 C 364.253906 155.226562 365.679688 153.246094 365 151.625 C 364.339844 150.066406 363.683594 148.503906 363.027344 146.945312 C 361.398438 141.738281 359.722656 136.566406 357.882812 131.417969 C 355.71875 125.367188 353.984375 119.144531 351.710938 113.140625 C 350.234375 109.25 348.554688 105.429688 347.128906 101.515625 C 346.132812 98.777344 345.339844 95.941406 344.503906 93.136719 C 344.378906 92.578125 344.253906 92.015625 344.121094 91.464844 C 343.351562 88.347656 342.1875 85.605469 340.929688 82.648438 C 340.007812 80.492188 339.089844 78.335938 338.171875 76.179688 C 338.136719 76.097656 338.101562 76.011719 338.0625 75.929688 C 338.066406 75.925781 338.070312 75.933594 338.070312 75.925781 C 338.015625 75.347656 337.714844 74.707031 337.550781 74.152344 C 336.441406 70.34375 335.527344 66.40625 334.160156 62.683594 C 332.988281 59.488281 331.707031 56.328125 330.4375 53.164062 C 330.171875 52.320312 329.917969 51.46875 329.648438 50.625 C 329.128906 48.984375 327.8125 48.261719 326.496094 48.320312 C 325.101562 48.152344 323.667969 48.832031 323.125 50.582031 C 322.785156 51.679688 322.449219 52.769531 322.109375 53.863281 C 321.117188 56.417969 320.125 58.972656 319.132812 61.527344 C 318.03125 64.363281 317.75 67.488281 317.199219 70.472656 C 316.621094 73.585938 316.039062 76.269531 314.941406 79.222656 C 313.796875 82.3125 312.566406 85.382812 311.527344 88.503906 C 310.238281 92.367188 308.867188 96.257812 307.777344 100.179688 C 306.859375 103.480469 306.347656 106.941406 305.65625 110.296875 C 304.441406 116.183594 303.085938 122.058594 301.558594 127.871094 C 300.582031 131.582031 299.828125 135.441406 298.5625 139.0625 C 297.398438 142.398438 296.089844 145.6875 294.8125 148.988281 C 289.675781 150.324219 284.570312 151.714844 279.339844 152.632812 C 272.652344 153.804688 266.09375 155.164062 259.476562 156.671875 C 254.230469 157.867188 248.917969 158.734375 243.632812 159.734375 C 239.921875 160.433594 236.214844 161.144531 232.503906 161.851562 C 230.003906 162.328125 227.726562 163.339844 225.347656 164.246094 C 220.113281 166.234375 214.859375 167.890625 209.527344 169.480469 C 207.933594 169.84375 206.335938 170.210938 204.738281 170.570312 C 201.398438 171.320312 201.894531 175.867188 204.738281 176.851562 C 205.050781 176.960938 205.363281 177.066406 205.675781 177.175781 C 214.496094 181.488281 223.296875 185.945312 232.425781 189.5625 C 235.394531 190.734375 238.347656 191.964844 241.332031 193.089844 C 241.679688 193.359375 242.199219 193.53125 242.585938 193.730469 C 244.097656 194.503906 245.605469 195.277344 247.117188 196.050781 C 252.089844 198.601562 256.898438 201.320312 261.738281 204.117188 C 265.914062 206.535156 270.316406 208.511719 274.699219 210.535156 C 274.273438 213.652344 273.847656 216.769531 273.425781 219.886719 C 272.964844 223.253906 271.976562 226.554688 271.191406 229.859375 C 269.660156 236.289062 268.585938 242.796875 267.566406 249.328125 C 266.289062 257.488281 265.183594 265.601562 264.292969 273.808594 C 263.601562 280.214844 263.265625 286.660156 262.480469 293.050781 C 261.976562 297.179688 261.261719 301.339844 260.988281 305.492188 C 260.730469 309.464844 260.648438 313.457031 260.511719 317.4375 C 260.421875 317.8125 260.34375 318.183594 260.253906 318.554688 C 259.652344 321.054688 262.609375 324.035156 265.039062 322.234375 C 268.152344 319.925781 271.269531 317.613281 274.382812 315.304688 C 275.488281 314.484375 276.566406 313.769531 277.390625 312.652344 C 278.59375 311.023438 279.757812 309.363281 280.941406 307.722656 C 284.878906 302.257812 289.273438 296.992188 292.945312 291.359375 C 295.164062 287.964844 297.078125 284.332031 299.132812 280.832031 C 300.816406 277.964844 303.167969 275.410156 305.195312 272.78125 C 305.871094 271.910156 306.507812 271.027344 307.152344 270.148438 C 308.410156 268.578125 309.628906 266.984375 310.828125 265.332031 C 312.199219 263.445312 313.570312 261.558594 314.941406 259.671875 C 315.179688 259.34375 316.269531 257.960938 315.152344 259.34375 C 315.492188 258.917969 315.828125 258.492188 316.164062 258.066406 C 320.546875 252.535156 325.042969 247.234375 329.703125 241.980469 C 332.414062 245.480469 335.125 248.972656 338.140625 252.21875 C 342.726562 257.152344 347.390625 261.839844 352.257812 266.496094 C 356.171875 270.238281 358.957031 274.945312 362.699219 278.828125 C 366.964844 283.257812 371.777344 287.285156 376.539062 291.171875 C 376.925781 291.488281 377.308594 291.8125 377.695312 292.128906 C 382.53125 296.664062 387.601562 300.792969 392.753906 304.980469 C 394.632812 306.507812 398.707031 305.796875 398.3125 302.675781 C 397.804688 298.652344 397.296875 294.625 396.789062 290.601562 C 396.371094 287.308594 395.492188 284.15625 394.6875 280.933594 C 393.054688 274.394531 392.050781 267.648438 390.261719 261.164062 C 389.128906 257.042969 387.597656 253.035156 386.40625 248.929688 C 385.441406 245.605469 384.878906 242.128906 384.144531 238.746094 C 382.789062 232.53125 380.523438 226.578125 378.65625 220.5 C 378.300781 219.335938 377.917969 218.171875 377.527344 217.003906 C 379.230469 215.582031 380.917969 214.148438 382.519531 212.636719 C 382.539062 212.625 382.542969 212.621094 382.558594 212.609375 C 383.421875 212.035156 384.257812 211.414062 385.105469 210.820312 C 387.183594 209.359375 389.257812 207.898438 391.335938 206.4375 C 397.113281 202.375 402.585938 197.824219 408.125 193.441406 C 409.59375 192.277344 411.097656 191.136719 412.546875 189.945312 C 412.550781 189.945312 412.546875 189.945312 412.550781 189.945312 C 412.792969 189.851562 413.042969 189.632812 413.261719 189.496094 C 414.195312 188.910156 415.125 188.320312 416.054688 187.734375 C 419.199219 185.75 422.402344 183.898438 425.285156 181.550781 C 428.160156 179.214844 431.007812 176.835938 433.917969 174.542969 C 436.953125 172.148438 439.960938 169.519531 443.160156 167.335938 C 443.019531 167.476562 444.265625 166.761719 444.601562 166.570312 C 445.785156 165.890625 446.964844 165.214844 448.148438 164.539062 C 450.082031 163.429688 452.128906 162.417969 453.992188 161.191406 C 457.234375 159.054688 460.222656 156.410156 463.304688 154.042969 C 463.378906 153.988281 463.421875 153.914062 463.492188 153.851562 Z M 317.449219 109.207031 C 317.449219 109.199219 317.449219 109.195312 317.449219 109.191406 C 317.394531 108.640625 317.601562 108.675781 317.449219 109.207031 Z M 283.886719 158.421875 C 286.777344 157.914062 289.613281 157.046875 292.453125 156.316406 C 294.226562 155.859375 296.042969 155.488281 297.792969 154.945312 C 299.597656 154.382812 300.1875 153.078125 300.792969 151.476562 C 302.175781 147.828125 303.726562 144.207031 304.957031 140.503906 C 305.996094 137.363281 306.671875 134.054688 307.511719 130.855469 C 308.796875 125.976562 309.992188 121.054688 311.054688 116.121094 C 311.0625 116.328125 311.070312 116.539062 311.074219 116.75 C 311.199219 123.617188 310.738281 130.453125 309.953125 137.285156 C 309.632812 140.0625 309.316406 142.839844 308.996094 145.613281 C 308.867188 146.742188 308.734375 147.867188 308.605469 148.992188 C 308.597656 149.09375 308.59375 149.136719 308.585938 149.207031 C 308.574219 149.253906 308.566406 149.277344 308.550781 149.355469 C 307.761719 153.007812 307.136719 156.703125 306.480469 160.386719 C 300.417969 160.445312 294.410156 160.566406 288.351562 160.988281 C 285.222656 161.207031 282.164062 161.476562 279.0625 161.910156 C 276.679688 162.246094 274.296875 162.578125 271.914062 162.910156 C 271.261719 163 270.609375 163.089844 269.957031 163.183594 C 269.875 163.183594 269.753906 163.1875 269.527344 163.199219 C 264.976562 163.425781 260.417969 163.671875 255.863281 163.941406 C 265.195312 162.046875 274.5 160.066406 283.886719 158.421875 Z M 271.890625 263.828125 C 271.890625 263.800781 271.890625 263.796875 271.894531 263.773438 C 272.039062 262.910156 272.160156 262.039062 272.292969 261.175781 C 272.6875 258.609375 273.082031 256.042969 273.476562 253.476562 C 274.441406 247.207031 275.265625 240.847656 276.738281 234.675781 C 277.695312 230.667969 278.917969 226.632812 279.578125 222.5625 C 280.207031 218.660156 280.671875 214.71875 281.1875 210.796875 C 283.796875 212.171875 286.394531 213.558594 288.992188 214.953125 C 284.433594 227.136719 279.886719 239.484375 276.769531 252.113281 C 274.859375 259.851562 272.933594 267.570312 270.894531 275.277344 C 270.769531 275.753906 270.628906 276.230469 270.496094 276.707031 C 270.9375 272.414062 271.488281 268.125 271.890625 263.828125 Z M 406.726562 186.296875 C 403.835938 188.582031 400.964844 190.890625 398.058594 193.148438 C 396.191406 194.597656 394.324219 196.039062 392.457031 197.480469 C 391.566406 198.171875 390.671875 198.863281 389.777344 199.554688 C 389.480469 199.785156 389.179688 200.019531 388.882812 200.25 C 388.328125 200.679688 388.65625 200.261719 389.160156 200.035156 C 387.226562 200.910156 385.378906 202.691406 383.648438 203.910156 C 381.9375 205.109375 380.171875 206.257812 378.519531 207.539062 C 377.472656 208.351562 376.453125 209.203125 375.441406 210.0625 C 375.328125 209.617188 375.199219 209.171875 375.105469 208.726562 C 374.394531 205.363281 373.835938 201.960938 373.253906 198.566406 C 375.914062 197.085938 378.570312 195.605469 381.230469 194.125 C 381.460938 193.996094 381.71875 193.871094 381.972656 193.738281 C 381.730469 193.824219 381.757812 193.671875 382.082031 193.617188 C 382.140625 193.605469 382.199219 193.582031 382.257812 193.566406 C 382.351562 193.507812 382.457031 193.460938 382.539062 193.394531 C 382.4375 193.476562 382.378906 193.503906 382.296875 193.554688 C 382.597656 193.472656 382.898438 193.355469 383.1875 193.261719 C 385.292969 192.59375 387.394531 191.921875 389.5 191.25 C 395.585938 189.308594 401.824219 187.300781 407.613281 184.597656 C 409.199219 183.855469 410.789062 183.113281 412.378906 182.359375 C 410.441406 183.597656 408.539062 184.863281 406.726562 186.296875 Z M 406.726562 186.296875 " fill-opacity="1" fill-rule="nonzero"/><path fill="#8c0444" d="M 806.785156 454.304688 C 802.523438 453.382812 798.199219 452.609375 793.976562 451.527344 C 791.507812 450.898438 789.082031 449.925781 786.679688 448.941406 C 786.3125 448.265625 785.703125 447.695312 784.769531 447.417969 C 779.09375 445.726562 773.457031 443.871094 767.683594 442.53125 C 760.65625 440.898438 753.808594 439.089844 746.886719 437.054688 C 741.402344 435.4375 735.636719 435.25 730.125 433.824219 C 726.300781 432.832031 722.539062 431.4375 718.773438 430.25 C 716.292969 429.472656 713.785156 429.449219 711.207031 429.328125 C 704.132812 427.6875 696.96875 426.296875 689.902344 424.691406 C 687.5625 424.160156 686 425.992188 685.855469 427.832031 C 685.261719 429.460938 685.78125 431.46875 687.945312 431.992188 C 694.015625 433.457031 699.925781 435.230469 706.171875 435.570312 C 707.375 435.636719 708.574219 435.703125 709.777344 435.769531 C 710.652344 435.957031 711.523438 436.164062 712.398438 436.351562 C 719.691406 437.921875 726.835938 440.445312 734.042969 442.414062 C 741.140625 444.351562 748.339844 445.800781 755.484375 447.550781 C 759.28125 448.480469 763.066406 449.484375 766.882812 450.316406 C 768.570312 450.683594 770.285156 451.003906 771.996094 451.332031 C 771.402344 451.546875 770.800781 451.757812 770.207031 451.972656 C 766.316406 453.394531 762.554688 455.230469 758.761719 456.882812 C 758.085938 457.179688 757.40625 457.46875 756.730469 457.769531 C 756.480469 457.800781 756.214844 457.945312 755.972656 458.015625 C 753.425781 458.792969 750.90625 459.679688 748.375 460.507812 C 744.804688 461.675781 741.324219 462.953125 737.8125 464.300781 C 734.300781 465.644531 730.796875 466.992188 727.316406 468.421875 C 723.6875 469.910156 720.113281 471.707031 716.28125 472.585938 C 712.398438 473.476562 708.183594 474.011719 704.441406 475.382812 C 700.296875 476.902344 696.347656 478.957031 692.199219 480.472656 C 687.917969 482.035156 683.433594 483.03125 679.152344 484.59375 C 676.246094 485.652344 673.382812 486.882812 670.523438 488.101562 C 669.09375 488.558594 667.667969 489.011719 666.253906 489.421875 C 664.824219 489.832031 663.921875 491.109375 663.863281 492.5625 C 663.75 495.195312 663.636719 497.832031 663.523438 500.46875 C 663.425781 502.757812 663.054688 505.214844 663.390625 507.496094 C 663.820312 510.382812 664.328125 513.257812 664.792969 516.136719 C 665.011719 517.480469 665.226562 518.824219 665.445312 520.167969 C 665.5 520.507812 665.53125 520.867188 665.613281 521.203125 C 665.558594 520.976562 665.53125 520.8125 665.511719 520.699219 C 665.515625 520.792969 665.523438 520.902344 665.515625 521.0625 C 665.148438 530.96875 666.171875 540.867188 666.511719 550.753906 C 666.6875 555.890625 666.800781 561.011719 667.230469 566.132812 C 667.660156 571.246094 668.074219 576.230469 668.054688 581.351562 C 668.019531 591.65625 668.6875 601.902344 669.113281 612.195312 C 669.160156 613.351562 669.253906 614.5 669.320312 615.652344 C 664.226562 608.171875 658.933594 600.855469 653.546875 593.566406 C 647.613281 585.546875 642.328125 577.078125 636.769531 568.800781 C 634.109375 564.835938 630.800781 561.023438 628.707031 556.726562 C 626.351562 551.894531 624.167969 547.042969 621.285156 542.503906 C 619.648438 539.921875 617.796875 537.386719 616.332031 534.699219 C 615.152344 532.53125 614.320312 530.101562 613.339844 527.839844 C 611.148438 522.777344 608.8125 517.800781 606.460938 512.808594 C 606.328125 512.53125 606.195312 512.25 606.0625 511.96875 C 605.804688 511.394531 605.539062 510.816406 605.289062 510.242188 C 604.585938 508.636719 602.199219 508.25 600.832031 509.070312 C 592.140625 514.277344 582.921875 519.054688 574.785156 525.089844 C 570.179688 528.503906 565.691406 531.933594 561.292969 535.605469 C 559.992188 536.6875 558.695312 537.773438 557.394531 538.855469 C 557.175781 539.039062 556.949219 539.226562 556.726562 539.414062 C 556.6875 539.4375 556.664062 539.449219 556.609375 539.480469 C 553.800781 541.171875 551.109375 543.109375 548.371094 544.914062 C 543.863281 547.890625 539.839844 551.542969 535.726562 555.042969 C 535.679688 555.082031 535.578125 555.167969 535.472656 555.261719 C 535.300781 555.394531 535.003906 555.636719 534.910156 555.707031 C 533.628906 556.660156 532.355469 557.621094 531.082031 558.578125 C 528.832031 560.265625 526.558594 561.921875 524.34375 563.648438 C 522.054688 565.429688 519.789062 567.238281 517.515625 569.03125 C 516.425781 569.890625 515.324219 570.738281 514.242188 571.609375 C 513.902344 571.859375 513.570312 572.117188 513.234375 572.371094 C 508.917969 575.636719 504.609375 578.90625 500.25 582.117188 C 498.585938 583.339844 496.953125 584.648438 495.269531 585.871094 C 495.34375 585.710938 495.417969 585.554688 495.492188 585.398438 C 497.628906 580.917969 500.070312 576.492188 501.726562 571.804688 C 502.835938 568.671875 503.945312 565.539062 505.050781 562.40625 C 505.203125 561.976562 505.789062 560.445312 505.558594 560.941406 C 505.902344 560.140625 506.253906 559.34375 506.601562 558.542969 C 510.609375 549.3125 514.550781 540.058594 518.023438 530.609375 C 519.257812 527.246094 520.476562 523.875 521.695312 520.503906 C 524.066406 517.675781 526.640625 514.933594 528.332031 511.726562 C 530.820312 507 533.132812 502.230469 536.140625 497.816406 C 539.269531 493.222656 542.40625 488.632812 545.554688 484.050781 C 548.757812 479.394531 551.480469 474.640625 554.25 469.707031 C 554.695312 468.914062 555.140625 468.117188 555.585938 467.324219 C 556.457031 465.769531 555.9375 463.804688 554.417969 462.871094 C 548.277344 459.105469 542.257812 455.355469 536.390625 451.1875 C 531.0625 447.402344 525.621094 443.785156 520.160156 440.191406 C 513.726562 435.957031 507.304688 431.71875 500.9375 427.382812 C 498.429688 425.671875 496.019531 423.886719 493.597656 422.050781 C 492.261719 421.042969 490.929688 420.035156 489.597656 419.023438 C 493.664062 419.496094 497.84375 419.386719 501.910156 419.703125 C 506.257812 420.046875 510.597656 420.691406 514.929688 421.195312 C 523.613281 422.203125 532.289062 423.199219 540.984375 424.085938 C 549.660156 424.972656 558.367188 425.496094 567.042969 426.40625 C 571.710938 426.894531 576.507812 426.492188 581.199219 426.558594 C 585.75 426.621094 590.304688 426.851562 594.855469 427.003906 C 596.011719 427.042969 597.078125 426.347656 597.667969 425.390625 C 600.234375 421.222656 603.097656 417.132812 605.351562 412.789062 C 607.847656 407.976562 610.265625 403.117188 612.757812 398.300781 C 615.402344 393.183594 618.046875 388.179688 621.019531 383.25 C 622.429688 380.910156 624.128906 378.589844 625.199219 376.070312 C 626.425781 373.183594 627.621094 370.289062 628.835938 367.398438 C 629.324219 366.230469 629.8125 365.0625 630.300781 363.894531 C 630.316406 363.875 630.320312 363.875 630.339844 363.847656 C 630.617188 363.449219 630.804688 362.9375 631.023438 362.503906 C 632.664062 359.289062 634.308594 356.074219 635.949219 352.859375 C 638.246094 348.363281 640.859375 344.003906 643.019531 339.441406 C 644.226562 336.886719 645.195312 334.191406 646.273438 331.582031 C 646.9375 329.972656 647.601562 328.363281 648.265625 326.753906 C 648.3125 326.640625 648.363281 326.523438 648.410156 326.410156 C 648.464844 326.335938 648.578125 326.152344 648.742188 325.902344 C 651.097656 322.25 653.320312 318.484375 655.445312 314.679688 C 656.046875 321.320312 656.902344 327.886719 658.003906 334.53125 C 658.007812 334.574219 658.011719 334.582031 658.019531 334.617188 C 658.015625 334.667969 658.011719 334.707031 658.011719 334.796875 C 658.003906 336.097656 658.128906 337.417969 658.183594 338.71875 C 658.3125 341.601562 658.429688 344.484375 658.570312 347.367188 C 658.785156 351.859375 659.15625 356.34375 659.460938 360.832031 C 660.0625 369.777344 660.847656 378.699219 661.703125 387.625 C 662.171875 392.5 662.234375 397.40625 662.578125 402.289062 C 662.910156 406.996094 663.625 411.695312 664.160156 416.382812 C 664.359375 418.144531 665.511719 419.621094 667.417969 419.640625 C 669.023438 419.65625 670.871094 418.128906 670.671875 416.382812 C 670.15625 411.855469 669.511719 407.320312 669.121094 402.78125 C 668.730469 398.230469 668.703125 393.648438 668.359375 389.09375 C 667.667969 380.019531 666.695312 370.976562 666.046875 361.894531 C 665.402344 352.867188 665.125 343.824219 664.527344 334.796875 C 664.214844 330.117188 663.140625 325.390625 662.386719 320.765625 C 662.371094 320.667969 662.351562 320.570312 662.339844 320.46875 C 662.339844 320.457031 662.339844 320.457031 662.339844 320.441406 C 662.363281 319.238281 662.164062 317.984375 662.078125 316.785156 C 661.863281 313.84375 661.644531 310.898438 661.433594 307.953125 C 661.335938 306.585938 661.261719 305.21875 661.175781 303.851562 C 662.429688 301.3125 663.625 298.746094 664.738281 296.09375 C 665.460938 294.371094 666.183594 292.648438 666.90625 290.921875 C 667.109375 290.445312 667.308594 289.96875 667.507812 289.492188 C 667.507812 289.492188 667.507812 289.503906 667.511719 289.496094 C 667.765625 289.117188 667.984375 288.699219 668.214844 288.296875 C 668.257812 289.078125 668.308594 289.859375 668.320312 290.640625 C 668.363281 294.171875 668.402344 297.703125 668.445312 301.230469 C 668.472656 303.359375 668.964844 305.429688 669.34375 307.519531 C 669.859375 310.367188 670.085938 313.503906 670.910156 316.289062 C 670.910156 316.292969 670.910156 316.292969 670.910156 316.296875 C 670.914062 316.957031 670.976562 317.621094 671.007812 318.28125 C 671.09375 320.097656 671.183594 321.914062 671.269531 323.726562 C 671.539062 329.300781 672.023438 334.832031 672.511719 340.390625 C 672.964844 345.554688 672.375 350.765625 672.238281 355.941406 C 672.113281 360.636719 672.152344 365.398438 672.320312 370.09375 C 672.695312 380.582031 674.335938 390.976562 674.609375 401.453125 C 674.757812 407.140625 674.691406 412.511719 674.257812 418.179688 C 673.832031 423.726562 673.84375 429.160156 673.878906 434.726562 C 673.882812 435.675781 673.890625 436.625 673.894531 437.574219 C 673.921875 441.765625 680.4375 441.773438 680.410156 437.574219 C 680.378906 432.78125 680.03125 427.890625 680.394531 423.109375 C 680.800781 417.75 681.410156 412.421875 681.269531 407.046875 C 681.121094 401.453125 680.910156 396 680.34375 390.4375 C 679.773438 384.824219 679.382812 379.238281 679.042969 373.601562 C 678.722656 368.273438 678.777344 362.945312 678.742188 357.605469 C 678.707031 352.695312 679.371094 347.769531 679.242188 342.867188 C 679.113281 338.089844 678.261719 333.320312 678.015625 328.542969 C 677.734375 323.050781 677.757812 317.542969 676.773438 312.128906 C 676.179688 308.839844 675.636719 305.539062 674.988281 302.265625 C 674.984375 302.296875 674.980469 302.332031 674.972656 302.359375 C 674.984375 302.324219 674.972656 302.265625 674.980469 302.222656 C 674.972656 302.191406 674.96875 302.15625 674.960938 302.125 C 674.824219 301.433594 674.957031 301.671875 674.992188 302.003906 C 674.992188 301.738281 674.960938 301.449219 674.960938 301.230469 C 674.941406 299.519531 674.917969 297.808594 674.898438 296.097656 C 674.832031 290.417969 674.414062 284.980469 673.832031 279.324219 C 673.730469 278.332031 673.628906 277.339844 673.527344 276.351562 C 673.230469 273.476562 669.011719 271.496094 667.457031 274.707031 C 665.226562 279.308594 662.863281 283.863281 660.882812 288.582031 C 660.726562 288.949219 660.570312 289.316406 660.417969 289.6875 C 660.246094 286.097656 660.074219 282.511719 659.875 278.925781 C 659.710938 276.007812 655.234375 274.105469 653.804688 277.28125 C 649.964844 285.8125 645.878906 294.1875 641.898438 302.648438 C 639.8125 307.085938 637.828125 311.578125 635.621094 315.957031 C 633.320312 320.519531 630.929688 324.984375 629.101562 329.757812 C 627.984375 332.679688 626.808594 335.589844 625.742188 338.535156 C 625.777344 338.464844 625.808594 338.410156 625.851562 338.328125 C 625.777344 338.472656 625.714844 338.621094 625.648438 338.769531 C 625.671875 338.71875 625.691406 338.667969 625.710938 338.625 C 625.71875 338.59375 625.730469 338.5625 625.742188 338.535156 C 625.300781 339.378906 625.492188 339.117188 625.640625 338.785156 C 625.585938 338.914062 625.527344 339.039062 625.46875 339.164062 C 624.824219 340.539062 624.203125 341.921875 623.574219 343.296875 C 621.398438 348.042969 619.140625 352.667969 616.742188 357.300781 C 612.164062 366.144531 608.019531 375.195312 603.867188 384.242188 C 602.988281 386.15625 602.085938 388.054688 601.179688 389.957031 C 600.34375 391.714844 599.507812 393.472656 598.671875 395.230469 C 598.296875 396.019531 597.601562 397.023438 597.34375 397.917969 C 597.523438 397.515625 597.8125 397.496094 597.28125 398.15625 C 597.277344 398.160156 597.269531 398.167969 597.265625 398.175781 C 597.261719 398.183594 597.257812 398.191406 597.257812 398.199219 C 597.257812 398.191406 597.261719 398.1875 597.261719 398.179688 C 596.851562 398.6875 596.445312 399.199219 596.035156 399.710938 C 594.890625 401.144531 593.742188 402.574219 592.597656 404.007812 C 591.105469 405.871094 589.613281 407.738281 588.121094 409.605469 C 584.105469 409.867188 580.09375 410.140625 576.078125 410.378906 C 572.117188 410.613281 568.042969 410.136719 564.078125 409.972656 C 560.246094 409.816406 556.472656 409.203125 552.667969 408.703125 C 551.492188 408.546875 550.320312 408.394531 549.148438 408.238281 C 548.964844 408.214844 548.777344 408.191406 548.589844 408.164062 C 548.578125 408.160156 548.582031 408.160156 548.566406 408.152344 C 546.574219 407.390625 544.085938 407.253906 541.996094 406.835938 C 534.351562 405.300781 526.511719 403.820312 518.710938 403.441406 C 514.671875 403.246094 510.589844 403.203125 506.5625 402.824219 C 504.0625 402.589844 501.570312 402.277344 499.074219 402.003906 C 497.804688 401.863281 496.539062 401.726562 495.269531 401.585938 C 494.90625 401.546875 494.546875 401.503906 494.1875 401.46875 C 494.199219 401.476562 494.214844 401.480469 494.230469 401.492188 C 494.214844 401.480469 494.1875 401.476562 494.167969 401.464844 C 494.128906 401.460938 494.085938 401.457031 494.046875 401.453125 C 493.269531 401.375 493.515625 401.257812 493.867188 401.335938 C 493.273438 401.136719 492.351562 401.09375 491.882812 400.996094 C 490.347656 400.671875 488.816406 400.351562 487.28125 400.027344 C 485.113281 399.570312 482.945312 399.019531 480.761719 398.652344 C 476.066406 397.871094 471.105469 397.980469 466.355469 397.683594 C 463.527344 397.503906 462.070312 401.363281 464.050781 403.242188 C 466.230469 405.304688 468.378906 407.375 470.523438 409.457031 C 467.726562 409.253906 464.917969 409.128906 462.152344 408.90625 C 458.582031 408.621094 458.210938 413.261719 460.511719 414.976562 C 463.285156 417.042969 466.058594 419.109375 468.835938 421.179688 C 469.527344 421.695312 470.222656 422.210938 470.917969 422.730469 C 471.066406 422.839844 471.199219 422.96875 471.3125 423.085938 C 471.269531 423.027344 471.234375 422.984375 471.179688 422.910156 C 471.910156 423.902344 473.171875 424.742188 474.070312 425.570312 C 476.640625 427.9375 479.121094 430.507812 481.875 432.65625 C 484.636719 434.808594 487.425781 436.925781 490.203125 439.058594 C 492.109375 440.523438 494.007812 441.800781 496.042969 443.082031 C 497.953125 444.285156 499.859375 445.484375 501.769531 446.6875 C 502.382812 447.074219 502.992188 447.476562 503.613281 447.847656 C 503.917969 448.03125 504.039062 448.105469 504.09375 448.140625 C 508.957031 452.054688 513.898438 455.816406 518.609375 459.914062 C 523.574219 464.238281 528.386719 468.695312 533.191406 473.191406 C 532.339844 476.949219 531.609375 480.820312 530.363281 484.425781 C 529.40625 487.195312 528.101562 489.894531 526.980469 492.597656 C 526.507812 493.734375 526.039062 494.871094 525.570312 496.007812 C 525.574219 496 525.574219 496 525.578125 495.992188 C 525.574219 496 525.570312 496.011719 525.5625 496.019531 C 525.550781 496.054688 525.535156 496.085938 525.523438 496.117188 C 525.433594 496.339844 525.351562 496.457031 525.285156 496.53125 C 525.246094 496.621094 525.207031 496.714844 525.167969 496.789062 C 522.820312 501.101562 520.195312 505.519531 518.53125 510.148438 C 517.652344 512.597656 516.765625 515.039062 515.882812 517.488281 C 512.691406 521.679688 510.710938 526.523438 508.230469 531.171875 C 506.027344 535.292969 502.707031 538.816406 500.226562 542.773438 C 494.722656 551.554688 490.191406 560.941406 484.832031 569.808594 C 483.34375 572.273438 481.636719 574.699219 480.328125 577.261719 C 479.058594 579.746094 478.136719 582.476562 477.058594 585.050781 C 476.429688 586.558594 475.796875 588.070312 475.164062 589.578125 C 475.089844 589.753906 474.890625 590.070312 474.832031 590.179688 C 474.785156 590.242188 474.746094 590.300781 474.726562 590.339844 C 472.960938 593.277344 471.3125 596.289062 469.605469 599.257812 C 469.175781 600.011719 468.742188 600.765625 468.3125 601.515625 C 466.652344 604.410156 469.929688 607.484375 472.769531 605.972656 C 475.449219 604.542969 478.1875 603.148438 480.933594 601.730469 C 480.046875 603.667969 479.160156 605.605469 478.257812 607.53125 C 476.816406 610.601562 479.695312 613.324219 482.714844 611.988281 C 491.792969 607.972656 500.980469 604.054688 508.890625 597.957031 C 517.519531 591.300781 526.585938 585.328125 535.214844 578.671875 C 539.375 575.464844 543.382812 572.0625 547.375 568.648438 C 547.453125 568.582031 547.554688 568.511719 547.652344 568.445312 C 547.566406 568.496094 547.480469 568.550781 547.355469 568.625 C 547.648438 568.449219 547.921875 568.222656 548.203125 568.023438 C 549.507812 567.097656 550.816406 566.167969 552.125 565.242188 C 554.292969 563.703125 556.699219 562.289062 558.703125 560.527344 C 562.308594 557.355469 565.335938 553.539062 568.917969 550.332031 C 572.792969 546.859375 576.6875 543.414062 580.480469 539.855469 C 584.476562 536.105469 588.414062 532.335938 592.28125 528.457031 C 595.609375 525.121094 598.621094 521.640625 601.640625 518.054688 C 602.0625 519.03125 602.488281 520.003906 602.914062 520.980469 C 603.496094 522.3125 604.078125 523.648438 604.664062 524.980469 C 604.78125 525.25 604.898438 525.523438 605.015625 525.792969 C 605.03125 525.84375 605.042969 525.890625 605.070312 525.980469 C 606.550781 530.722656 608.101562 535.707031 610.222656 540.207031 C 614.421875 549.113281 619.25 557.789062 623.164062 566.820312 C 627.242188 576.242188 631.503906 585.46875 636.953125 594.1875 C 638.363281 596.445312 639.984375 598.671875 641.226562 601.027344 C 642.332031 603.132812 643.136719 605.472656 644.074219 607.660156 C 644.957031 609.714844 645.695312 611.949219 646.773438 613.914062 C 648.113281 616.355469 649.933594 618.628906 651.484375 620.941406 C 654.71875 625.777344 657.890625 630.652344 661.070312 635.527344 C 664 640.019531 667.984375 643.886719 671.503906 647.917969 C 673.402344 650.089844 677.074219 648.308594 677.066406 645.613281 C 677.054688 642.609375 677.125 639.589844 677.113281 636.574219 C 677.179688 636.652344 677.242188 636.730469 677.308594 636.808594 C 677.394531 636.910156 677.476562 637.019531 677.5625 637.128906 C 677.578125 637.121094 677.679688 637.21875 677.90625 637.515625 C 677.917969 637.53125 677.929688 637.546875 677.941406 637.5625 C 677.949219 637.570312 677.957031 637.582031 677.964844 637.589844 C 677.960938 637.582031 677.957031 637.582031 677.949219 637.574219 C 679.980469 640.242188 682.015625 642.90625 684.046875 645.570312 C 684.582031 646.273438 685.117188 646.972656 685.652344 647.671875 C 687.441406 650.023438 691.832031 649.589844 691.722656 646.03125 C 691.570312 641.171875 691.757812 636.1875 691.105469 631.367188 C 690.671875 628.183594 690.242188 625 689.808594 621.820312 C 689.726562 621.210938 689.644531 620.601562 689.5625 619.992188 C 689.511719 619.621094 689.566406 619.277344 689.597656 619.339844 C 689.570312 618.496094 689.4375 617.617188 689.390625 616.804688 C 689.066406 611.234375 688.648438 605.964844 687.660156 600.476562 C 686.714844 595.207031 685.867188 589.933594 685.058594 584.640625 C 684.277344 579.546875 683.277344 574.5 682.324219 569.4375 C 682.277344 569.191406 682.246094 568.878906 682.183594 568.597656 C 682.230469 568.925781 682.21875 569.28125 682.160156 568.59375 C 682.15625 568.546875 682.148438 568.496094 682.144531 568.449219 C 682.128906 568.40625 682.128906 568.351562 682.109375 568.3125 C 682.121094 568.335938 682.128906 568.367188 682.140625 568.402344 C 682.007812 566.945312 681.839844 565.492188 681.6875 564.039062 C 681.417969 561.441406 681.167969 558.839844 680.882812 556.246094 C 680.355469 551.476562 680.082031 546.542969 679.101562 541.847656 C 678.066406 536.898438 676.839844 531.992188 675.753906 527.054688 C 674.414062 520.949219 673.183594 514.878906 672.089844 508.726562 C 671.894531 507.617188 671.820312 506.304688 671.511719 505.179688 C 671.546875 505.398438 671.488281 505.332031 671.453125 504.96875 C 671.421875 504.875 671.40625 504.769531 671.371094 504.675781 C 671.414062 504.792969 671.425781 504.863281 671.449219 504.949219 C 671.445312 504.875 671.433594 504.832031 671.429688 504.730469 C 671.410156 503.976562 671.347656 503.21875 671.304688 502.46875 C 671.164062 499.964844 671.019531 497.464844 670.878906 494.964844 C 671.316406 494.78125 671.75 494.597656 672.1875 494.414062 C 675.03125 493.515625 677.894531 492.613281 680.777344 492.046875 C 685.191406 491.183594 689.738281 490.855469 694.191406 490.191406 C 703.503906 488.808594 712.757812 487.328125 721.800781 484.625 C 726.410156 483.246094 730.984375 481.84375 735.65625 480.703125 C 737.273438 480.308594 738.890625 479.914062 740.507812 479.519531 C 741.488281 479.277344 743.117188 479.183594 744.007812 478.664062 C 744.011719 478.660156 744.007812 478.660156 744.011719 478.65625 C 744.273438 478.625 744.535156 478.597656 744.796875 478.570312 C 746.402344 478.390625 748.003906 478.210938 749.609375 478.03125 C 752.101562 477.753906 754.757812 477.714844 757.210938 477.160156 C 759.511719 476.640625 761.8125 475.601562 764.046875 474.847656 C 768.648438 473.289062 773.167969 472.125 777.902344 471.003906 C 779.972656 470.515625 781.96875 470.121094 783.910156 469.261719 C 787.066406 467.863281 790.210938 466.445312 793.363281 465.039062 C 793.726562 464.878906 794.097656 464.714844 794.460938 464.550781 C 794.488281 464.546875 794.492188 464.546875 794.527344 464.539062 C 795.882812 464.25 797.238281 463.664062 798.558594 463.238281 C 801.300781 462.355469 804.042969 461.46875 806.78125 460.585938 C 809.667969 459.65625 810.09375 455.023438 806.785156 454.304688 Z M 477.78125 404.917969 C 478.246094 404.949219 478.714844 404.984375 479.183594 405.007812 C 479.140625 404.988281 479.09375 404.96875 479.050781 404.941406 C 479.097656 404.96875 479.167969 404.984375 479.226562 405.011719 C 479.921875 405.042969 479.820312 405.179688 479.484375 405.113281 C 480.085938 405.292969 480.894531 405.328125 481.394531 405.433594 C 482.929688 405.757812 484.464844 406.082031 486 406.402344 C 488.164062 406.859375 490.332031 407.410156 492.519531 407.777344 C 501.785156 409.339844 511.136719 409.296875 520.46875 410.042969 C 524.960938 410.402344 529.453125 411.21875 533.921875 411.816406 C 534.558594 411.902344 534.230469 411.902344 533.878906 411.847656 C 534.054688 411.878906 534.234375 411.902344 534.402344 411.941406 C 535.6875 412.214844 536.980469 412.457031 538.269531 412.714844 C 541.027344 413.269531 543.78125 413.867188 546.542969 414.375 C 555.574219 416.039062 564.636719 416.511719 573.78125 416.890625 C 578.292969 417.074219 582.882812 416.453125 587.382812 416.164062 C 589.363281 416.039062 591.125 416.082031 592.519531 414.464844 C 594.347656 412.347656 596.027344 410.082031 597.777344 407.898438 C 599.273438 406.027344 600.789062 404.164062 602.269531 402.28125 C 603.496094 400.726562 604.191406 398.734375 605.039062 396.953125 C 606.976562 392.882812 608.902344 388.8125 610.78125 384.714844 C 614.570312 376.464844 618.402344 368.242188 622.578125 360.179688 C 626.824219 351.984375 630.722656 343.664062 634.027344 335.039062 C 634.867188 332.839844 635.820312 330.652344 636.5625 328.414062 C 635.96875 330.199219 636.992188 327.683594 637.214844 327.242188 C 637.921875 325.839844 638.628906 324.4375 639.335938 323.035156 C 641.398438 318.941406 643.375 314.832031 645.3125 310.679688 C 648.175781 304.535156 651.175781 298.46875 654.0625 292.339844 C 654.238281 295.742188 654.425781 299.144531 654.613281 302.546875 C 654.460938 302.847656 654.308594 303.148438 654.148438 303.445312 C 651.410156 308.566406 648.597656 313.546875 645.59375 318.515625 C 644.386719 320.511719 643.054688 322.445312 642.160156 324.597656 C 640.816406 327.835938 639.484375 331.078125 638.148438 334.316406 C 637.890625 334.933594 637.636719 335.554688 637.382812 336.171875 C 637.386719 336.164062 637.386719 336.160156 637.394531 336.152344 C 637.390625 336.160156 637.386719 336.167969 637.378906 336.175781 C 637.378906 336.175781 637.378906 336.179688 637.375 336.183594 C 637.140625 336.753906 636.988281 336.824219 637.101562 336.585938 C 636.640625 337.324219 636.292969 338.234375 635.910156 338.960938 C 634.308594 341.996094 632.691406 345.023438 631.101562 348.0625 C 628.769531 352.523438 626.195312 356.988281 624.242188 361.628906 C 623.03125 364.507812 621.828125 367.390625 620.621094 370.273438 C 620.128906 371.441406 619.644531 372.609375 619.152344 373.777344 C 619.132812 373.789062 619.125 373.789062 619.101562 373.816406 C 618.738281 374.15625 618.492188 374.824219 618.234375 375.253906 C 615.320312 380.085938 612.390625 384.851562 609.796875 389.863281 C 607.144531 394.984375 604.511719 400.113281 601.890625 405.253906 C 599.332031 410.273438 596.425781 414.984375 593.46875 419.789062 C 593.335938 420 593.207031 420.210938 593.074219 420.421875 C 589.242188 420.28125 585.40625 420.113281 581.574219 420.042969 C 577.167969 419.964844 572.726562 420.242188 568.328125 420.015625 C 563.953125 419.792969 559.582031 419.054688 555.21875 418.652344 C 550.859375 418.25 546.484375 418.054688 542.125 417.679688 C 524.691406 416.195312 507.410156 413.160156 489.90625 412.515625 C 489.832031 412.511719 489.75 412.5 489.671875 412.492188 C 489.851562 412.46875 489.71875 412.394531 489.144531 412.449219 C 489.1875 412.457031 489.226562 412.460938 489.265625 412.46875 C 489.171875 412.460938 489.074219 412.453125 488.988281 412.460938 C 489.046875 412.453125 489.089844 412.453125 489.144531 412.449219 C 489.140625 412.449219 489.140625 412.449219 489.140625 412.445312 C 487.726562 412.152344 486.296875 411.914062 484.878906 411.648438 C 483.648438 411.414062 482.417969 411.167969 481.183594 410.929688 C 479.128906 408.851562 477.058594 406.78125 474.96875 404.742188 C 475.90625 404.800781 476.84375 404.859375 477.78125 404.917969 Z M 509.503906 444.160156 C 505.09375 440.691406 499.949219 438.285156 495.457031 434.945312 C 492.324219 432.617188 489.265625 430.1875 486.171875 427.808594 C 486.035156 427.703125 485.902344 427.597656 485.765625 427.496094 C 485.652344 427.378906 485.246094 427.011719 485.070312 426.847656 C 483.589844 425.484375 482.109375 424.121094 480.625 422.757812 C 478.140625 420.472656 475.566406 418.347656 472.945312 416.285156 C 473.714844 416.351562 474.839844 416.636719 475.640625 416.519531 C 475.925781 416.578125 476.21875 416.628906 476.507812 416.683594 C 477.015625 416.777344 477.527344 416.875 478.039062 416.96875 C 478.585938 417.53125 479.152344 418.074219 479.695312 418.640625 C 484.300781 423.457031 489.644531 427.464844 495.113281 431.277344 C 506.621094 439.304688 518.667969 446.558594 530.101562 454.679688 C 536.128906 458.960938 542.199219 462.9375 548.445312 466.824219 C 546.671875 470.128906 544.933594 473.488281 542.824219 476.554688 C 540.875 479.394531 538.925781 482.234375 536.980469 485.074219 C 538.269531 481.148438 538.949219 476.925781 539.925781 472.953125 C 540.199219 471.84375 539.945312 470.585938 539.089844 469.78125 C 529.523438 460.820312 519.804688 452.269531 509.503906 444.160156 Z M 479.789062 594.824219 C 480.328125 593.792969 480.839844 592.753906 481.285156 591.691406 C 482.574219 588.621094 483.859375 585.546875 485.148438 582.472656 C 485.402344 581.867188 485.65625 581.261719 485.910156 580.652344 C 485.984375 580.476562 486.179688 580.15625 486.265625 580.007812 C 486.3125 579.945312 486.351562 579.890625 486.375 579.855469 C 486.785156 579.214844 487.164062 578.546875 487.558594 577.894531 C 492.613281 569.53125 497.378906 561.011719 502.191406 552.511719 C 500.433594 556.621094 498.757812 560.703125 497.261719 564.9375 C 496.695312 566.542969 496.125 568.148438 495.558594 569.753906 C 495.398438 570.203125 495.230469 570.648438 495.082031 571.101562 C 495.046875 571.214844 495.015625 571.285156 494.984375 571.367188 C 495.027344 571.273438 495.066406 571.191406 495.148438 571.042969 C 495.085938 571.160156 495.03125 571.285156 494.96875 571.40625 C 494.882812 571.621094 494.84375 571.679688 494.890625 571.570312 C 493.738281 573.769531 492.746094 576.074219 491.679688 578.3125 C 489.570312 582.734375 487.535156 587.191406 485.515625 591.65625 C 483.613281 592.730469 481.707031 593.78125 479.789062 594.824219 Z M 554.339844 555.710938 C 554.292969 555.742188 554.25 555.777344 554.203125 555.808594 C 554.410156 555.617188 555 555.265625 554.339844 555.710938 Z M 580.058594 531.328125 C 572.191406 538.707031 564.117188 545.808594 556.527344 553.46875 C 555.828125 554.175781 554.710938 554.964844 554.179688 555.824219 C 553.734375 556.132812 553.296875 556.453125 552.855469 556.765625 C 550.140625 558.691406 547.414062 560.605469 544.710938 562.546875 C 542.925781 563.828125 541.28125 565.296875 539.597656 566.707031 C 538.210938 567.875 536.820312 569.039062 535.433594 570.207031 C 534.957031 570.605469 534.476562 571 534.003906 571.40625 C 533.558594 571.785156 533.25 572.054688 533.734375 571.667969 C 530.167969 574.5625 526.515625 577.488281 522.714844 580.0625 C 518.425781 582.96875 514.089844 585.789062 509.988281 588.953125 C 507.566406 590.820312 505.207031 592.859375 502.683594 594.582031 C 500.730469 595.917969 498.535156 596.976562 496.480469 598.148438 C 493.554688 599.816406 490.605469 601.277344 487.609375 602.679688 C 488.507812 600.675781 489.410156 598.675781 490.308594 596.675781 C 493.328125 594.9375 496.265625 593.097656 499.03125 591.058594 C 508.078125 584.394531 517.042969 577.640625 525.867188 570.683594 C 526.777344 569.96875 527.703125 569.265625 528.601562 568.53125 C 528.613281 568.519531 528.617188 568.515625 528.632812 568.503906 C 529.105469 568.160156 529.570312 567.800781 530.039062 567.453125 C 532.757812 565.410156 535.476562 563.371094 538.195312 561.332031 C 539.957031 560.007812 541.621094 558.566406 543.304688 557.148438 C 544.730469 555.953125 546.15625 554.757812 547.582031 553.558594 C 548.085938 553.136719 548.589844 552.714844 549.09375 552.289062 C 549.175781 552.21875 549.257812 552.15625 549.332031 552.101562 C 549.28125 552.128906 549.238281 552.148438 549.171875 552.179688 C 549.25 552.144531 549.324219 552.09375 549.398438 552.054688 C 549.617188 551.902344 549.757812 551.839844 549.738281 551.867188 C 551.992188 550.667969 554.125 548.914062 556.230469 547.527344 C 558.050781 546.328125 559.910156 545.195312 561.589844 543.804688 C 564.25 541.609375 566.886719 539.390625 569.53125 537.183594 C 569.960938 536.824219 570.394531 536.476562 570.816406 536.109375 C 570.851562 536.078125 570.863281 536.066406 570.890625 536.042969 C 571.792969 535.417969 572.660156 534.726562 573.539062 534.074219 C 577.644531 531.03125 581.648438 528.230469 585.957031 525.585938 C 584.015625 527.523438 582.058594 529.449219 580.058594 531.328125 Z M 672.921875 543.914062 C 672.929688 544 672.941406 544.082031 672.949219 544.164062 C 672.894531 543.996094 672.816406 542.972656 672.921875 543.914062 Z M 672.707031 543.078125 C 672.765625 543.34375 672.789062 543.945312 672.953125 544.179688 C 673.300781 547.355469 673.699219 550.527344 674.070312 553.703125 C 674.652344 558.660156 675.09375 563.632812 675.644531 568.59375 C 676.171875 573.328125 677.414062 577.984375 678.210938 582.675781 C 679 587.308594 679.542969 591.984375 680.375 596.609375 C 680.972656 599.941406 681.574219 603.277344 682.171875 606.613281 C 682.230469 606.9375 682.273438 607.289062 682.34375 607.621094 C 682.28125 608.871094 682.496094 610.191406 682.566406 611.4375 C 682.9375 617.871094 683.605469 624.101562 684.46875 630.492188 C 684.578125 631.28125 684.683594 632.070312 684.792969 632.859375 C 684.796875 632.902344 684.796875 632.9375 684.800781 632.976562 C 684.800781 632.96875 684.800781 632.96875 684.804688 632.960938 C 684.800781 632.96875 684.804688 632.976562 684.800781 632.980469 C 684.847656 633.460938 684.765625 633.699219 684.730469 633.625 C 684.691406 634.367188 684.792969 635.199219 684.863281 635.949219 C 683.988281 634.816406 683.132812 633.667969 682.222656 632.566406 C 680.34375 630.292969 678.433594 628.046875 676.535156 625.796875 C 676.25 622.8125 675.945312 619.832031 675.820312 616.84375 C 675.40625 606.800781 674.511719 596.699219 674.550781 586.652344 C 674.570312 581.542969 674.621094 576.535156 674.191406 571.445312 C 673.757812 566.273438 673.382812 561.160156 673.203125 555.976562 C 673.054688 551.578125 672.84375 547.183594 672.640625 542.792969 C 672.664062 542.890625 672.683594 542.984375 672.707031 543.078125 Z M 667.925781 633.941406 C 667.785156 633.78125 667.640625 633.621094 667.503906 633.460938 C 667.640625 633.644531 667.613281 633.65625 667.449219 633.394531 C 667.363281 633.300781 667.285156 633.199219 667.195312 633.109375 C 667.300781 633.210938 667.371094 633.296875 667.433594 633.375 C 667.402344 633.324219 667.382812 633.300781 667.339844 633.226562 C 664.859375 629.007812 661.996094 624.953125 659.269531 620.886719 C 656.535156 616.796875 653.335938 612.847656 651.390625 608.3125 C 649.394531 603.660156 647.640625 599 644.957031 594.707031 C 642.125 590.175781 639.464844 585.597656 636.980469 580.925781 C 639.921875 585.402344 642.875 589.871094 645.984375 594.234375 C 651.960938 602.632812 658.355469 610.722656 664.027344 619.335938 C 665.652344 621.800781 667.195312 624.34375 668.910156 626.746094 C 669.328125 627.332031 669.773438 627.902344 670.226562 628.464844 C 670.273438 629.027344 670.316406 629.589844 670.363281 630.15625 C 670.550781 632.425781 670.597656 634.714844 670.601562 637.003906 C 669.710938 635.984375 668.816406 634.964844 667.925781 633.941406 Z M 709.105469 480.960938 C 710.769531 480.523438 712.460938 480.140625 714.210938 479.742188 C 714.574219 479.65625 714.949219 479.582031 715.320312 479.503906 C 713.253906 480.019531 711.183594 480.507812 709.105469 480.960938 Z M 791.636719 458.71875 C 789.179688 459.785156 786.746094 460.902344 784.300781 461.996094 C 783.074219 462.542969 781.847656 463.082031 780.625 463.636719 C 780.566406 463.664062 780.503906 463.6875 780.445312 463.714844 C 780.273438 463.753906 780.019531 463.820312 779.882812 463.84375 C 775.429688 464.617188 770.75 465.714844 766.457031 467.164062 C 763.46875 468.175781 760.484375 469.1875 757.496094 470.199219 C 757.136719 470.320312 755.4375 470.8125 755.65625 470.851562 C 754.9375 470.945312 754.207031 471.003906 753.496094 471.082031 C 748.523438 471.640625 743.632812 472.050781 738.773438 473.238281 C 734.03125 474.398438 729.339844 475.570312 724.664062 476.96875 C 723.628906 477.277344 722.597656 477.546875 721.5625 477.839844 C 722.6875 477.382812 723.796875 476.859375 724.90625 476.402344 C 728.484375 474.933594 732.054688 473.449219 735.667969 472.066406 C 739.300781 470.675781 742.910156 469.148438 746.605469 467.9375 C 750.847656 466.546875 755.300781 465.417969 759.402344 463.660156 C 761.691406 462.683594 763.964844 461.675781 766.242188 460.683594 C 767.597656 460.089844 768.957031 459.5 770.3125 458.910156 C 770.617188 458.777344 770.921875 458.644531 771.230469 458.507812 C 775.222656 457.476562 779.15625 455.804688 783.054688 454.339844 C 785.949219 455.492188 788.792969 456.816406 791.769531 457.707031 C 792.253906 457.851562 792.753906 457.964844 793.25 458.09375 C 792.710938 458.300781 792.164062 458.492188 791.636719 458.71875 Z M 791.636719 458.71875 " fill-opacity="1" fill-rule="nonzero"/><path fill="#8c0444" d="M 411.007812 465.246094 C 401.949219 464.703125 392.988281 463.941406 383.957031 463.050781 C 375.101562 462.183594 366.164062 461.246094 357.269531 460.929688 C 352.859375 460.769531 348.351562 461.40625 343.941406 461.628906 C 339.523438 461.847656 335.078125 461.792969 330.65625 461.855469 C 321.820312 461.988281 313.023438 461.957031 304.1875 462.265625 C 295.277344 462.574219 286.371094 462.953125 277.460938 463.34375 C 275.332031 459.601562 273.21875 455.851562 271.046875 452.132812 C 268.191406 447.25 265.667969 442.269531 261.917969 438.023438 C 259.738281 435.550781 257.679688 432.746094 255.277344 430.488281 C 255.058594 430.121094 254.777344 429.765625 254.539062 429.414062 C 253.488281 427.871094 252.433594 426.328125 251.378906 424.785156 C 248.054688 419.910156 244.460938 415.5625 240.617188 411.074219 C 233.875 403.210938 227.480469 395.023438 220.605469 387.277344 C 217.277344 383.53125 213.6875 380.019531 210.359375 376.265625 C 206.671875 372.105469 203.050781 367.90625 199.136719 363.953125 C 195.890625 360.675781 192.714844 357.371094 189.574219 354.015625 C 185.367188 349.074219 181.164062 344.132812 177.125 339.042969 C 177.003906 338.882812 176.886719 338.726562 176.765625 338.566406 C 176.21875 337.835938 175.667969 337.105469 175.121094 336.371094 C 174.898438 336.078125 174.628906 335.824219 174.332031 335.617188 C 173.632812 334.929688 172.746094 334.738281 171.878906 334.925781 C 170.324219 334.996094 168.925781 335.996094 169.050781 338.015625 C 169.050781 338.023438 169.050781 338.03125 169.050781 338.039062 C 169.050781 338.078125 169.03125 338.113281 169.03125 338.152344 C 169.023438 343.367188 168.75 348.636719 169.191406 353.839844 C 169.390625 356.1875 169.648438 358.546875 169.851562 360.90625 C 169.886719 365.710938 169.855469 370.523438 169.695312 375.363281 C 169.675781 376.148438 169.65625 376.933594 169.648438 377.71875 C 169.476562 383.890625 169.464844 390.0625 169.417969 396.234375 C 169.054688 399.207031 168.546875 402.179688 168.445312 405.152344 C 168.273438 410.300781 168.445312 415.472656 168.449219 420.632812 C 168.183594 424.050781 167.886719 427.472656 167.578125 430.898438 C 167.105469 436.070312 165.738281 441.367188 165.980469 446.554688 C 166.15625 450.398438 166.542969 454.289062 166.519531 458.132812 C 166.511719 459.257812 166.394531 460.398438 166.253906 461.535156 C 165.804688 464.628906 165.222656 467.726562 165.097656 470.824219 C 164.667969 475.546875 164.449219 480.273438 164.160156 485.023438 C 163.96875 488.179688 163.742188 491.332031 163.53125 494.484375 C 163.460938 495.527344 163.238281 496.71875 163.242188 497.8125 C 163.269531 497.710938 163.316406 497.941406 163.261719 498.394531 C 163.265625 498.421875 163.261719 498.449219 163.265625 498.476562 C 163.261719 498.453125 163.261719 498.441406 163.257812 498.417969 C 163.253906 498.457031 163.253906 498.488281 163.246094 498.527344 C 163.113281 499.417969 162.984375 500.304688 162.851562 501.195312 C 162.472656 503.765625 162.175781 506.304688 161.871094 508.847656 C 152.453125 511.664062 143.035156 514.539062 133.5 516.933594 C 127.667969 518.398438 122.113281 519.949219 116.445312 521.933594 C 114.3125 522.679688 112.175781 523.605469 109.972656 524.121094 C 106.628906 524.902344 103.222656 525.492188 99.855469 526.175781 C 94.527344 527.261719 89.507812 529.429688 84.378906 531.230469 C 79.753906 532.859375 74.980469 534.105469 70.296875 535.554688 C 65.335938 537.09375 60.421875 538.820312 55.410156 540.167969 C 49.863281 541.65625 44.4375 542.925781 39.207031 545.285156 C 36.222656 546.628906 33.089844 547.8125 30.199219 549.339844 C 29.75 549.519531 29.304688 549.707031 28.859375 549.890625 C 27.070312 550.625 25.28125 551.359375 23.492188 552.09375 C 18.0625 554.328125 12.734375 556.726562 7.390625 559.167969 C 6.496094 559.578125 5.601562 559.988281 4.703125 560.398438 C 2.574219 561.371094 2.574219 565.046875 4.703125 566.023438 C 8.550781 567.777344 12.371094 569.628906 16.257812 571.300781 C 12.53125 572.84375 8.824219 574.429688 5.164062 576.148438 C 4.222656 576.59375 3.277344 577.035156 2.335938 577.480469 C 0.0429688 578.558594 0.390625 581.933594 2.335938 583.105469 C 4.480469 584.394531 6.625 585.6875 8.769531 586.976562 C 10.644531 588.105469 12.523438 589.507812 14.582031 590.292969 C 18.886719 591.929688 23.273438 593.421875 27.640625 594.878906 C 36.660156 597.894531 45.691406 600.445312 54.871094 602.917969 C 59.542969 604.179688 64.15625 605.515625 68.917969 606.394531 C 73.890625 607.3125 78.753906 608.242188 83.640625 609.519531 C 93.121094 611.996094 102.359375 615.140625 111.914062 617.328125 C 121.65625 619.5625 131.34375 622.015625 141.054688 624.375 C 142.796875 626.003906 145.050781 625.097656 146.011719 623.464844 C 146.019531 623.453125 146.027344 623.4375 146.035156 623.425781 C 146.082031 623.347656 146.128906 623.269531 146.167969 623.191406 C 147.113281 621.511719 146.757812 619.09375 144.375 618.488281 C 142.9375 617.023438 141.496094 615.5625 140.054688 614.101562 C 138.597656 612.617188 137.117188 610.578125 135.28125 609.539062 C 132.675781 608.066406 129.675781 607.054688 126.9375 605.84375 C 125.132812 605.042969 123.339844 604.203125 121.5 603.488281 C 116.996094 601.742188 112.417969 600.167969 107.96875 598.292969 C 103.464844 596.398438 99.019531 594.175781 94.300781 592.886719 C 89.492188 591.570312 84.6875 590.414062 80.046875 588.59375 C 75.390625 586.769531 70.738281 584.941406 66.070312 583.140625 C 61.296875 581.300781 56.734375 579.664062 51.796875 578.34375 C 50.257812 577.933594 48.71875 577.519531 47.179688 577.109375 C 46.574219 576.945312 45.96875 576.761719 45.359375 576.621094 C 45.109375 576.566406 44.550781 576.375 44.5 576.378906 C 42.304688 575.449219 40.144531 574.40625 37.972656 573.425781 C 36.445312 572.738281 34.90625 572.09375 33.371094 571.433594 C 34.214844 571.09375 35.066406 570.769531 35.910156 570.425781 C 41.238281 568.257812 46.578125 566.113281 51.925781 563.988281 C 56.324219 562.246094 60.910156 560.246094 65.5 559.113281 C 68.84375 558.289062 72.246094 557.65625 75.609375 556.929688 C 77.828125 556.453125 79.738281 555.609375 81.828125 554.71875 C 84.476562 553.585938 87.117188 552.296875 89.820312 551.277344 C 89.820312 551.292969 90.003906 551.253906 90.375 551.167969 C 91.101562 551.003906 91.820312 550.777344 92.539062 550.582031 C 94.476562 550.054688 96.414062 549.527344 98.355469 549 C 108.308594 546.296875 117.824219 541.875 127.917969 539.65625 C 131.382812 538.894531 134.851562 538.128906 138.316406 537.367188 C 140.425781 536.902344 142.367188 535.96875 144.367188 535.15625 C 146.847656 534.152344 149.320312 532.984375 151.863281 532.144531 C 155.023438 531.097656 158.292969 530.316406 161.492188 529.410156 C 162.488281 529.125 163.488281 528.84375 164.484375 528.558594 C 165.945312 528.144531 166.773438 526.871094 166.875 525.417969 C 167.109375 522.039062 167.34375 518.660156 167.578125 515.277344 C 167.632812 514.5 167.6875 513.722656 167.742188 512.941406 C 168.011719 512.457031 168.199219 511.914062 168.277344 511.304688 C 168.671875 508.25 169.066406 505.191406 169.464844 502.136719 C 169.636719 500.808594 169.839844 499.484375 169.980469 498.152344 C 170.0625 497.550781 170.144531 496.945312 170.230469 496.34375 C 170.707031 492.871094 171.191406 489.402344 171.667969 485.929688 C 172.027344 483.320312 171.757812 480.617188 171.703125 477.984375 C 171.652344 475.578125 171.417969 473.097656 171.640625 470.699219 C 171.972656 467.085938 172.527344 463.480469 172.96875 459.878906 C 173.589844 454.851562 173.488281 449.75 173.820312 444.699219 C 174.171875 439.316406 174.867188 433.960938 174.914062 428.566406 C 174.929688 426.355469 174.921875 424.148438 174.933594 421.9375 C 175.050781 420.398438 175.191406 418.855469 175.269531 417.320312 C 175.621094 410.378906 175.761719 403.445312 175.855469 396.511719 C 175.996094 395.101562 176.136719 393.691406 176.261719 392.269531 C 176.578125 388.601562 176.199219 384.882812 176.070312 381.183594 C 176.085938 380.308594 176.089844 379.4375 176.109375 378.5625 C 176.21875 372.988281 176.59375 367.429688 176.535156 361.855469 C 176.484375 357.453125 176.335938 353.085938 176.144531 348.714844 C 177.039062 349.871094 177.957031 351.011719 178.925781 352.097656 C 181.328125 354.800781 183.785156 357.464844 186.277344 360.097656 C 187.957031 362.050781 189.625 364.015625 191.253906 366.027344 C 192.386719 367.429688 193.515625 368.832031 194.652344 370.230469 C 194.71875 370.316406 194.894531 370.546875 195.023438 370.71875 C 195.144531 370.902344 195.28125 371.101562 195.328125 371.171875 C 197.351562 374.121094 199.371094 377.074219 201.394531 380.023438 C 204.152344 384.046875 207.296875 387.796875 210.132812 391.769531 C 213.351562 396.28125 216.335938 400.941406 219.695312 405.347656 C 223.382812 410.179688 226.804688 414.976562 230.117188 420.0625 C 233.246094 424.863281 236.050781 429.851562 239.105469 434.695312 C 241.644531 438.722656 245.304688 442.230469 247.417969 446.496094 C 249.003906 449.695312 250.503906 452.9375 252.046875 456.15625 C 253.074219 458.300781 254.636719 460.023438 256.117188 461.886719 C 257.351562 463.445312 258.589844 465 259.828125 466.558594 C 260.242188 467.082031 260.660156 467.609375 261.078125 468.132812 C 261.769531 469 261.070312 468.394531 261.039062 468.097656 C 261.144531 469.1875 262.347656 470.730469 262.832031 471.707031 C 263.71875 473.488281 264.605469 475.273438 265.488281 477.054688 C 265.761719 477.601562 266.03125 478.144531 266.300781 478.6875 C 266.445312 479.503906 266.867188 480.261719 267.558594 480.746094 C 268.347656 481.484375 269.378906 481.605469 270.332031 481.300781 C 274.566406 481.3125 278.800781 481.316406 283.035156 481.335938 C 287.546875 481.351562 292.152344 481.6875 296.652344 481.414062 C 301.242188 481.136719 305.863281 480.179688 310.425781 479.558594 C 310.417969 479.5625 310.40625 479.566406 310.410156 479.570312 C 310.570312 479.6875 311.152344 479.625 311.347656 479.640625 C 312.761719 479.746094 314.171875 479.847656 315.585938 479.953125 C 318.289062 480.152344 320.996094 480.421875 323.699219 480.554688 C 332.628906 480.988281 341.617188 480.511719 350.546875 480.398438 C 354.957031 480.339844 359.433594 480.933594 363.832031 481.230469 C 364.128906 481.253906 364.605469 481.378906 364.894531 481.304688 C 364.898438 481.304688 364.894531 481.300781 364.898438 481.300781 C 365.804688 481.425781 366.714844 481.550781 367.625 481.675781 C 370.59375 482.082031 373.566406 482.488281 376.535156 482.898438 C 380.78125 483.476562 385.113281 483.097656 389.410156 483.023438 C 388.925781 483.429688 388.4375 483.832031 387.964844 484.25 C 381.324219 490.085938 375.210938 496.683594 368.980469 502.953125 C 365.890625 506.058594 363.015625 509.394531 360.058594 512.625 C 357.121094 515.832031 353.859375 518.75 350.730469 521.761719 C 344.515625 527.753906 338.445312 533.890625 332.402344 540.054688 C 327.101562 545.457031 322.164062 551.164062 317.382812 557.015625 C 315.550781 559.085938 313.785156 561.238281 312.023438 563.292969 C 310.402344 565.183594 310.867188 566.933594 311.433594 568.984375 C 311.757812 570.453125 312.195312 571.929688 312.472656 573.285156 C 312.875 575.253906 313.128906 577.34375 313.703125 579.269531 C 314.195312 580.925781 314.925781 582.550781 315.625 584.164062 C 316.429688 586.667969 317.28125 589.160156 318.082031 591.660156 C 319.511719 596.128906 322.121094 600.25 324.265625 604.410156 C 324.527344 604.917969 324.777344 605.476562 325.0625 605.996094 C 324.964844 605.746094 325.035156 605.71875 325.171875 606.167969 C 325.179688 606.1875 325.1875 606.207031 325.195312 606.226562 C 325.242188 606.304688 325.277344 606.394531 325.328125 606.46875 C 325.269531 606.386719 325.246094 606.328125 325.203125 606.257812 C 325.351562 606.722656 325.523438 607.179688 325.683594 607.636719 C 326.699219 610.546875 327.714844 613.460938 328.730469 616.371094 C 330.273438 620.792969 332.304688 625.015625 334.203125 629.292969 C 335.976562 633.296875 337.695312 637.328125 339.421875 641.355469 C 339.902344 642.476562 340.382812 643.597656 340.867188 644.722656 C 340.882812 644.757812 340.90625 644.824219 340.9375 644.898438 C 341 645.082031 341.074219 645.285156 341.097656 645.359375 C 342.101562 648.109375 343.152344 650.847656 344.179688 653.589844 C 346.328125 659.332031 348.699219 664.976562 351.207031 670.566406 C 348.957031 668.722656 346.6875 666.898438 344.382812 665.136719 C 340.148438 661.898438 335.980469 658.730469 331.53125 655.804688 C 330.085938 654.855469 328.640625 653.90625 327.195312 652.957031 C 326.726562 652.648438 326.265625 652.316406 325.785156 652.027344 C 325.742188 652.003906 325.726562 651.996094 325.695312 651.976562 C 323.613281 649.988281 321.160156 648.265625 318.9375 646.441406 C 311.097656 640.003906 301.925781 635.421875 293.496094 629.820312 C 289.707031 627.300781 286.144531 624.445312 282.375 621.898438 C 278.195312 619.074219 273.976562 616.316406 269.8125 613.46875 C 264.628906 609.914062 259.480469 606.601562 254.054688 603.429688 C 252.949219 602.78125 251.71875 601.773438 250.5 601.351562 C 251.136719 601.570312 251.242188 601.945312 250.515625 601.363281 C 249.925781 600.890625 249.332031 600.421875 248.738281 599.953125 C 246.230469 597.960938 243.722656 595.96875 241.214844 593.980469 C 239.613281 592.703125 237.246094 592.65625 236.101562 594.636719 C 229.902344 605.378906 223.359375 615.890625 216.886719 626.46875 C 214.183594 630.882812 212.667969 635.9375 210.058594 640.394531 C 208.152344 643.652344 206.078125 646.828125 204.09375 650.039062 C 202.734375 652.230469 201.878906 654.726562 200.859375 657.089844 C 198.347656 662.910156 195.667969 668.625 192.832031 674.296875 C 190.507812 678.945312 187.265625 683.105469 184.976562 687.777344 C 182.050781 693.746094 179.078125 699.621094 175.902344 705.457031 C 174.742188 707.585938 173.628906 709.671875 172.632812 711.878906 C 171.761719 713.808594 170.886719 715.738281 170.015625 717.667969 C 169.664062 718.445312 168.238281 720.503906 168.332031 721.386719 C 168.296875 721.011719 169 720.496094 168.332031 721.386719 C 168.304688 721.425781 168.289062 721.449219 168.257812 721.492188 C 167.730469 722.167969 167.207031 722.839844 166.679688 723.515625 C 165.359375 725.210938 164.039062 726.90625 162.71875 728.601562 C 161.902344 729.648438 160.855469 730.707031 160.183594 731.863281 C 159.546875 732.957031 159.1875 734.351562 158.734375 735.519531 C 157.957031 737.515625 157.179688 739.511719 156.40625 741.503906 C 156.234375 741.945312 156.0625 742.386719 155.890625 742.828125 C 155.03125 744.210938 154.171875 745.59375 153.3125 746.976562 C 153.265625 746.34375 153.222656 745.710938 153.179688 745.082031 C 152.949219 741.816406 153.15625 738.5625 153.25 735.289062 C 153.375 731.03125 153.148438 726.820312 152.945312 722.597656 C 153.21875 720.015625 153.507812 717.398438 153.402344 714.863281 C 153.3125 712.664062 153.046875 710.46875 152.765625 708.273438 C 152.824219 706.140625 152.878906 704.011719 152.863281 701.878906 C 152.847656 699.367188 152.578125 696.835938 152.3125 694.3125 C 152.402344 693.210938 152.488281 692.113281 152.546875 691.03125 C 152.78125 686.507812 152.015625 682.082031 151.453125 677.628906 C 151.4375 675.636719 151.429688 673.648438 151.429688 671.664062 C 151.429688 667.542969 151.722656 663.316406 151.382812 659.210938 C 151.136719 656.238281 150.78125 653.269531 150.421875 650.304688 C 150.398438 648.816406 150.363281 647.324219 150.339844 645.835938 C 150.3125 643.914062 148.929688 642.882812 147.441406 642.722656 C 147.191406 642.65625 146.925781 642.613281 146.640625 642.609375 C 145.027344 642.59375 143.1875 644.121094 143.382812 645.867188 C 143.558594 647.433594 143.730469 649.003906 143.90625 650.570312 C 144 656.472656 144.113281 662.371094 144.300781 668.269531 C 144.394531 671.128906 144.570312 673.867188 144.890625 676.675781 C 144.890625 680.507812 144.945312 684.339844 145.226562 688.136719 C 145.378906 690.214844 145.597656 692.292969 145.808594 694.375 C 145.636719 696.613281 145.480469 698.855469 145.507812 701.089844 C 145.539062 703.816406 145.917969 706.589844 146.269531 709.335938 C 146.238281 710.355469 146.210938 711.371094 146.195312 712.382812 C 146.152344 715.367188 146.332031 718.34375 146.515625 721.320312 C 146.226562 724.769531 145.84375 728.21875 145.980469 731.679688 C 146.316406 740.277344 146.835938 748.824219 147.4375 757.40625 C 147.664062 760.621094 151.699219 761.84375 153.507812 759.046875 C 156.121094 755.015625 158.992188 751.121094 161.117188 746.835938 C 164.523438 741.394531 167.90625 735.945312 171.179688 730.425781 C 176.796875 720.964844 183.023438 711.761719 189.46875 702.835938 C 192.664062 698.410156 196.175781 694.238281 198.980469 689.546875 C 202.1875 684.191406 205.449219 679.058594 209.019531 673.9375 C 212.289062 669.242188 215.605469 664.433594 218.367188 659.425781 C 218.417969 659.328125 218.453125 659.265625 218.476562 659.214844 C 218.703125 658.933594 218.925781 658.652344 219.152344 658.367188 C 220.328125 656.894531 221.5 655.417969 222.675781 653.941406 C 224.21875 652.003906 226.074219 650.101562 227.25 647.910156 C 230.078125 642.664062 232.472656 637.421875 235.800781 632.476562 C 239.160156 627.480469 242.097656 622.472656 245.007812 617.214844 C 247.785156 619.46875 250.558594 621.738281 253.476562 623.777344 C 257.660156 626.699219 261.9375 629.515625 266.226562 632.28125 C 270.828125 635.25 275.417969 638.214844 279.941406 641.296875 C 281.425781 642.304688 282.910156 643.316406 284.390625 644.324219 C 284.871094 644.652344 285.34375 645.003906 285.835938 645.308594 C 285.890625 645.34375 285.910156 645.351562 285.949219 645.375 C 288.25 647.285156 290.652344 649.089844 293 650.945312 C 297.296875 654.34375 301.644531 657.671875 305.980469 661.015625 C 307.554688 662.230469 309.28125 663.171875 310.988281 664.1875 C 312.585938 665.140625 314.183594 666.09375 315.78125 667.046875 C 316.445312 667.441406 317.230469 668.085938 317.996094 668.441406 C 317.773438 668.296875 317.90625 668.25 318.355469 668.59375 C 318.378906 668.601562 318.40625 668.617188 318.429688 668.625 C 318.398438 668.617188 318.386719 668.605469 318.359375 668.597656 C 318.386719 668.617188 318.398438 668.621094 318.429688 668.644531 C 318.964844 669.082031 319.507812 669.515625 320.046875 669.953125 C 321.484375 671.117188 322.921875 672.28125 324.359375 673.449219 C 326.058594 674.824219 327.730469 676.25 329.511719 677.523438 C 332.265625 679.492188 335.019531 681.457031 337.773438 683.425781 C 338.222656 683.75 338.667969 684.082031 339.125 684.394531 C 339.234375 684.46875 339.304688 684.515625 339.355469 684.550781 C 340.230469 685.222656 341.101562 685.898438 341.972656 686.574219 C 346.382812 689.984375 350.675781 693.414062 354.90625 697.039062 C 359.117188 700.648438 362.957031 704.472656 366.867188 708.417969 C 367.503906 709.0625 368.144531 709.707031 368.78125 710.351562 C 370.90625 712.492188 375.535156 710.316406 374.226562 707.179688 C 371.746094 701.242188 369.375 695.207031 366.863281 689.246094 C 367.628906 688.523438 368.007812 687.464844 367.515625 686.242188 C 364.132812 677.839844 360.71875 669.484375 356.910156 661.261719 C 356.90625 661.25 356.90625 661.25 356.898438 661.242188 C 356.875 661.164062 356.847656 661.082031 356.796875 660.9375 C 356.371094 659.730469 355.914062 658.53125 355.472656 657.328125 C 354.542969 654.789062 353.640625 652.238281 352.679688 649.707031 C 351.082031 645.503906 349.042969 641.4375 347.210938 637.332031 C 345.464844 633.421875 343.359375 629.652344 341.417969 625.835938 C 339.480469 622.03125 337.84375 618.058594 336.085938 614.164062 C 332.566406 606.371094 329.21875 598.566406 325.476562 590.875 C 325.246094 590.394531 324.199219 588.011719 324.863281 589.710938 C 324.515625 588.824219 324.15625 587.941406 323.800781 587.058594 C 323.273438 585.738281 322.730469 584.421875 322.195312 583.101562 C 321.871094 582.117188 321.546875 581.132812 321.230469 580.148438 C 320.019531 576.363281 319.050781 572.5 318.070312 568.644531 C 317.96875 568.042969 317.867188 567.449219 317.765625 566.859375 C 318.726562 565.660156 319.683594 564.464844 320.652344 563.273438 C 322.132812 561.574219 323.625 559.886719 325.179688 558.265625 C 328.007812 555.304688 331.535156 552.839844 334.667969 550.210938 C 340.632812 545.203125 346.242188 539.949219 351.492188 534.214844 C 354.136719 531.328125 356.640625 528.785156 359.628906 526.269531 C 362.644531 523.730469 365.699219 521.257812 368.546875 518.527344 C 374.582031 512.738281 380.628906 506.96875 387.097656 501.660156 C 390.664062 498.734375 394.511719 496.132812 398.019531 493.140625 C 401.570312 490.113281 404.894531 486.78125 408.320312 483.609375 C 410.597656 481.503906 408.609375 478.34375 406.015625 478.050781 C 405.832031 478.03125 405.652344 478.003906 405.46875 477.984375 C 408.101562 475.609375 410.695312 473.191406 413.3125 470.808594 C 415.527344 468.785156 413.664062 465.40625 411.007812 465.246094 Z M 44.4375 583.121094 C 49.199219 584.394531 54.03125 585.449219 58.632812 587.222656 C 67.925781 590.804688 77.117188 594.945312 86.726562 597.570312 C 89.394531 598.300781 92.152344 598.890625 94.773438 599.769531 C 96.75 600.4375 98.667969 601.390625 100.59375 602.203125 C 105.242188 604.160156 109.894531 606.019531 114.613281 607.8125 C 116.261719 608.4375 117.902344 609.078125 119.554688 609.691406 C 119.824219 609.789062 120.09375 609.925781 120.371094 610 C 120.300781 609.980469 120.261719 609.96875 120.203125 609.953125 C 120.285156 609.984375 120.367188 610.011719 120.433594 610.042969 C 123.722656 611.519531 127.027344 612.964844 130.324219 614.425781 C 130.734375 614.605469 131.339844 615.011719 131.816406 615.109375 C 131.882812 615.21875 131.957031 615.332031 132.046875 615.445312 C 127.328125 614.277344 122.605469 613.113281 117.871094 612.015625 C 113.3125 610.957031 108.632812 610.160156 104.164062 608.753906 C 99.613281 607.320312 95.089844 605.777344 90.472656 604.570312 C 85.789062 603.347656 81.15625 602.050781 76.398438 601.171875 C 71.574219 600.285156 66.859375 599.402344 62.125 598.128906 C 52.675781 595.578125 43.210938 593.183594 33.917969 590.105469 C 28.539062 588.324219 23.203125 586.4375 17.863281 584.554688 C 17.464844 584.417969 17.058594 584.25 16.652344 584.125 C 16.648438 584.121094 16.648438 584.117188 16.640625 584.113281 C 15.679688 583.214844 14.140625 582.605469 13.015625 581.929688 C 12.300781 581.5 11.585938 581.070312 10.871094 580.636719 C 11.863281 580.171875 12.855469 579.703125 13.847656 579.238281 C 14.863281 578.757812 15.925781 578.324219 16.917969 577.796875 C 16.609375 577.933594 16.394531 577.988281 16.917969 577.796875 C 16.996094 577.753906 17.082031 577.722656 17.15625 577.679688 C 17.082031 577.722656 17 577.761719 16.921875 577.796875 C 16.957031 577.78125 16.984375 577.773438 17.03125 577.757812 C 17.707031 577.511719 18.375 577.25 19.046875 576.996094 C 20.964844 576.273438 22.875 575.539062 24.785156 574.804688 C 25.25 574.992188 25.71875 575.183594 26.183594 575.375 C 27.324219 575.835938 28.464844 576.308594 29.609375 576.765625 C 29.5625 576.746094 29.519531 576.722656 29.480469 576.703125 C 29.558594 576.746094 29.644531 576.777344 29.726562 576.8125 C 29.753906 576.824219 29.78125 576.835938 29.804688 576.847656 C 30.277344 577.035156 30.179688 577.007812 29.953125 576.917969 C 30.140625 576.996094 30.324219 577.082031 30.507812 577.167969 C 35.050781 579.214844 39.613281 581.832031 44.4375 583.121094 Z M 160.609375 521.871094 C 160.585938 522.207031 160.5625 522.546875 160.539062 522.882812 C 156.285156 524.03125 151.976562 525.09375 147.90625 526.742188 C 144.707031 528.039062 141.53125 529.5 138.273438 530.644531 C 135.980469 531.449219 133.449219 531.777344 131.078125 532.296875 C 125.289062 533.570312 119.738281 535.265625 114.070312 537.003906 C 109.433594 538.429688 104.945312 540.316406 100.304688 541.71875 C 94.878906 543.359375 89.40625 544.449219 84.183594 546.679688 C 81.378906 547.878906 78.59375 549.148438 75.761719 550.285156 C 75.707031 550.285156 75.625 550.289062 75.480469 550.304688 C 74.832031 550.375 74.167969 550.585938 73.53125 550.726562 C 71.625 551.136719 69.71875 551.546875 67.8125 551.960938 C 57.632812 554.160156 47.875 558.578125 38.242188 562.488281 C 33.769531 564.304688 29.277344 566.058594 24.796875 567.835938 C 23.707031 567.390625 22.621094 566.9375 21.527344 566.492188 C 20.992188 566.277344 20.457031 566.054688 19.921875 565.839844 C 19.914062 565.835938 19.914062 565.835938 19.90625 565.832031 C 19.945312 565.855469 19.960938 565.859375 20.007812 565.882812 C 19.957031 565.859375 19.90625 565.835938 19.855469 565.8125 C 19.519531 565.671875 19.378906 565.597656 19.4375 565.613281 C 18.40625 565.117188 17.347656 564.667969 16.308594 564.195312 C 15.589844 563.863281 14.867188 563.535156 14.148438 563.207031 C 14.714844 562.949219 15.277344 562.691406 15.84375 562.433594 C 17.226562 561.800781 18.621094 561.191406 19.992188 560.535156 C 20.0625 560.503906 20.105469 560.480469 20.152344 560.460938 C 20.425781 560.347656 20.703125 560.234375 20.980469 560.117188 C 26.289062 557.9375 31.617188 555.804688 36.855469 553.449219 C 39.726562 552.15625 42.667969 550.949219 45.496094 549.5625 C 45.519531 549.558594 45.527344 549.5625 45.558594 549.558594 C 46.105469 549.5 46.6875 549.257812 47.21875 549.113281 C 48.964844 548.644531 50.714844 548.175781 52.464844 547.703125 C 58.097656 546.191406 63.632812 544.480469 69.199219 542.726562 C 74.402344 541.089844 79.640625 539.574219 84.84375 537.9375 C 89.46875 536.476562 93.925781 534.335938 98.601562 533.066406 C 103.480469 531.738281 108.703125 531.53125 113.484375 529.859375 C 118.816406 527.988281 124.0625 526.019531 129.539062 524.644531 C 140.15625 521.976562 150.652344 518.960938 161.144531 515.851562 C 160.957031 517.851562 160.75 519.839844 160.609375 521.871094 Z M 358.023438 685.414062 C 358.839844 687.257812 359.640625 689.105469 360.425781 690.96875 C 360.957031 692.226562 361.488281 693.480469 362.015625 694.734375 C 358.484375 691.496094 354.851562 688.367188 351.019531 685.398438 C 346.527344 681.925781 342.042969 678.503906 337.425781 675.203125 C 336.035156 674.210938 334.644531 673.214844 333.257812 672.222656 C 332.929688 671.988281 332.601562 671.71875 332.253906 671.503906 C 329.746094 669.421875 327.183594 667.398438 324.652344 665.347656 C 320.441406 661.9375 315.671875 659.449219 311.046875 656.636719 C 309.261719 655.554688 307.660156 654.152344 306.007812 652.875 C 304.574219 651.769531 303.140625 650.664062 301.710938 649.558594 C 301.25 649.207031 300.792969 648.851562 300.332031 648.496094 C 299.84375 648.121094 299.9375 648.183594 300.144531 648.34375 C 292.101562 641.707031 283.625 635.757812 274.863281 630.105469 C 270.199219 627.097656 265.566406 624.0625 260.960938 620.96875 C 259.675781 620.105469 258.402344 619.226562 257.105469 618.378906 C 257.078125 618.363281 257.027344 618.332031 256.976562 618.296875 C 256.828125 618.195312 256.492188 617.96875 256.382812 617.882812 C 253.710938 615.773438 251.03125 613.667969 248.355469 611.5625 C 247.679688 611.03125 247.003906 610.496094 246.328125 609.964844 C 244.746094 608.722656 242.320312 608.609375 241.210938 610.625 C 238.675781 615.222656 236.355469 620 233.425781 624.359375 C 231.449219 627.296875 229.359375 630.183594 227.488281 633.1875 C 226.175781 635.292969 225.171875 637.640625 224.050781 639.851562 C 223.242188 641.441406 222.375 643.007812 221.628906 644.625 C 221.515625 644.867188 221.414062 645.082031 221.371094 645.195312 C 221.246094 645.339844 221.132812 645.492188 221.015625 645.640625 C 218.738281 648.5 216.460938 651.359375 214.183594 654.21875 C 211 658.21875 208.699219 662.878906 205.855469 667.117188 C 202.761719 671.734375 199.40625 676.144531 196.554688 680.917969 C 195.546875 682.597656 194.570312 684.308594 193.566406 686.003906 C 194.808594 683.828125 196.078125 681.664062 197.390625 679.480469 C 200.007812 675.125 202.171875 670.324219 204.203125 665.667969 C 205.722656 662.183594 207.214844 658.6875 208.71875 655.199219 C 209.761719 652.785156 211.40625 650.597656 212.785156 648.371094 C 214.113281 646.21875 215.550781 644.125 216.625 641.832031 C 218.214844 638.449219 219.707031 634.996094 221.398438 631.660156 C 223.769531 626.984375 226.875 622.585938 229.648438 618.128906 C 233.132812 612.539062 236.519531 606.933594 239.816406 601.234375 C 242.503906 603.503906 245.222656 605.8125 248.203125 607.554688 C 252.660156 610.160156 257.152344 612.671875 261.414062 615.589844 C 270.222656 621.621094 279.109375 627.511719 287.792969 633.71875 C 291.957031 636.695312 296.386719 639.265625 300.730469 641.972656 C 302.4375 643.042969 304.136719 644.128906 305.839844 645.210938 C 307.300781 646.136719 308.761719 647.0625 310.222656 647.988281 C 310.695312 648.289062 311.160156 648.621094 311.648438 648.894531 C 311.699219 648.921875 311.714844 648.929688 311.753906 648.949219 C 319.117188 656.03125 328.152344 660.867188 336.203125 667.023438 C 337.835938 668.269531 339.464844 669.515625 341.09375 670.761719 C 341.597656 671.144531 342.101562 671.53125 342.605469 671.914062 C 342.609375 671.921875 342.605469 671.917969 342.613281 671.925781 C 344.96875 674.289062 347.882812 676.273438 350.460938 678.402344 C 353.109375 680.589844 355.578125 682.992188 358.023438 685.414062 Z M 393.414062 488.535156 C 392.367188 489.425781 391.285156 490.28125 390.195312 491.121094 C 390.632812 490.699219 391.074219 490.277344 391.511719 489.851562 C 393.753906 487.675781 396.21875 485.722656 398.675781 483.761719 C 396.953125 485.390625 395.210938 487.003906 393.414062 488.535156 Z M 398.421875 475.582031 C 397.90625 476.03125 397.378906 476.464844 396.851562 476.90625 C 395.324219 476.734375 393.796875 476.582031 392.273438 476.503906 C 390.222656 476.394531 388.128906 476.546875 386.078125 476.570312 C 384.488281 476.585938 382.898438 476.605469 381.308594 476.625 C 380.71875 476.628906 379.09375 476.324219 378.613281 476.652344 C 378.609375 476.65625 378.621094 476.660156 378.621094 476.664062 C 378.308594 476.621094 378 476.578125 377.691406 476.535156 C 376.226562 476.335938 374.761719 476.132812 373.296875 475.933594 C 370.835938 475.597656 368.378906 475.257812 365.917969 474.921875 C 361.234375 474.285156 356.351562 474.050781 351.632812 473.886719 C 347.144531 473.730469 342.613281 474.082031 338.125 474.144531 C 333.683594 474.207031 329.226562 474.125 324.78125 474.066406 C 320.351562 474.007812 315.894531 473.460938 311.476562 473.136719 C 309.867188 473.015625 308.3125 473.324219 306.71875 473.542969 C 303.671875 473.957031 300.628906 474.371094 297.582031 474.785156 C 297.234375 474.832031 296.890625 474.878906 296.542969 474.925781 C 296.523438 474.917969 296.523438 474.910156 296.492188 474.898438 C 295.539062 474.5625 293.769531 474.882812 292.777344 474.878906 C 289.691406 474.859375 286.609375 474.839844 283.527344 474.824219 C 279.566406 474.800781 275.605469 474.800781 271.644531 474.792969 C 269.609375 470.515625 267.714844 466.085938 264.777344 462.386719 C 262.617188 459.667969 260.472656 456.941406 258.300781 454.230469 C 258.316406 454.242188 258.328125 454.246094 258.328125 454.234375 C 258.34375 453.859375 257.757812 453.042969 257.605469 452.726562 C 256.785156 451.011719 255.964844 449.300781 255.140625 447.585938 C 254.15625 445.53125 253.328125 443.351562 251.988281 441.503906 C 249.886719 438.601562 247.785156 435.699219 245.6875 432.796875 C 242.828125 428.851562 240.648438 424.417969 238.042969 420.308594 C 235.921875 416.957031 233.785156 413.613281 231.515625 410.363281 C 232.238281 411.230469 232.953125 412.105469 233.683594 412.964844 C 235.507812 415.121094 237.363281 417.257812 239.203125 419.40625 C 240.222656 420.597656 241.226562 421.816406 242.269531 422.988281 C 242.300781 423.019531 242.300781 423.023438 242.324219 423.050781 C 242.269531 422.976562 242.214844 422.894531 242.160156 422.800781 C 242.214844 422.898438 242.289062 422.988281 242.351562 423.085938 C 242.597656 423.371094 242.554688 423.351562 242.410156 423.167969 C 242.5625 423.390625 242.710938 423.609375 242.859375 423.828125 C 246.085938 428.558594 249.121094 433.347656 252.914062 437.640625 C 254.96875 439.972656 256.914062 442.714844 259.21875 444.8125 C 259.410156 445.324219 259.8125 445.828125 260.085938 446.292969 C 261.015625 447.878906 261.941406 449.46875 262.871094 451.054688 C 265.765625 456.007812 268.609375 460.984375 271.453125 465.964844 C 271.910156 466.769531 272.371094 467.578125 272.832031 468.382812 C 273.574219 469.683594 274.769531 470.089844 275.902344 469.921875 C 293.75 469.140625 311.5625 468.464844 329.425781 468.386719 C 338.351562 468.34375 347.1875 467.769531 356.097656 467.449219 C 360.484375 467.292969 365 467.960938 369.378906 468.253906 C 373.792969 468.550781 378.199219 469.039062 382.601562 469.441406 C 389.5 470.070312 396.359375 470.707031 403.246094 471.226562 C 401.648438 472.695312 400.050781 474.15625 398.421875 475.582031 Z M 398.421875 475.582031 " fill-opacity="1" fill-rule="nonzero"/></svg>