<svg xmlns="http://www.w3.org/2000/svg" xmlns:xlink="http://www.w3.org/1999/xlink" width="1920" zoomAndPan="magnify" viewBox="0 0 1440 809.999993" height="1080" preserveAspectRatio="xMidYMid meet" version="1.0"><defs><clipPath id="4fb8143a7e"><path d="M 69 197 L 1304 197 L 1304 606 L 69 606 Z M 69 197 " clip-rule="nonzero"/></clipPath><clipPath id="79703db2cc"><path d="M 431.101562 -189.070312 L 1389.300781 331.550781 L 1008.683594 1032.078125 L 50.484375 511.457031 Z M 431.101562 -189.070312 " clip-rule="nonzero"/></clipPath><clipPath id="7cd56e728f"><path d="M 431.101562 -189.070312 L 1389.300781 331.550781 L 1008.683594 1032.078125 L 50.484375 511.457031 Z M 431.101562 -189.070312 " clip-rule="nonzero"/></clipPath></defs><g clip-path="url(#4fb8143a7e)"><g clip-path="url(#79703db2cc)"><g clip-path="url(#7cd56e728f)"><path fill="#dcd9ff" d="M 1297.867188 407.347656 C 1289.808594 383.363281 1261.847656 336.070312 1240.90625 304.160156 C 1215.585938 265.597656 1181.179688 218.285156 1138.242188 199.324219 C 1123 192.574219 1102.042969 206.179688 1105.664062 223.804688 C 1114.820312 268.082031 1148.714844 310.609375 1173.542969 348.535156 C 818.617188 202.242188 375.523438 228.570312 77.378906 481.898438 C 59.167969 497.367188 76.996094 525.777344 98.394531 513.246094 C 414.984375 327.546875 811.097656 283.03125 1142.941406 443.074219 C 1131.839844 448.890625 1120.71875 454.738281 1109.597656 460.496094 C 1064.601562 483.804688 1016.609375 503.304688 981.292969 540.515625 C 957.839844 565.214844 981.621094 608.65625 1014.410156 605.335938 C 1062.875 600.449219 1105.335938 574.878906 1148.621094 554.125 C 1192.535156 533.0625 1237.078125 512.992188 1280.191406 490.332031 C 1310.335938 474.515625 1305.925781 431.332031 1297.867188 407.347656 Z M 1297.867188 407.347656 " fill-opacity="1" fill-rule="nonzero"/></g></g></g></svg>