<svg xmlns="http://www.w3.org/2000/svg" xmlns:xlink="http://www.w3.org/1999/xlink" width="1080" zoomAndPan="magnify" viewBox="0 0 810 809.999993" height="1080" preserveAspectRatio="xMidYMid meet" version="1.0"><defs><clipPath id="b232a87de1"><path d="M 114.390625 0 L 695.640625 0 L 695.640625 810 L 114.390625 810 Z M 114.390625 0 " clip-rule="nonzero"/></clipPath></defs><g clip-path="url(#b232a87de1)"><path fill="#6d0033" d="M 409.984375 -264.253906 C 34.414062 -264.253906 -271.132812 41.292969 -271.132812 416.863281 C -271.132812 792.429688 34.414062 1097.980469 409.984375 1097.980469 C 785.550781 1097.980469 1091.101562 792.429688 1091.101562 416.863281 C 1091.101562 41.292969 785.550781 -264.253906 409.984375 -264.253906 Z M 409.984375 1007.164062 C 84.488281 1007.164062 -180.316406 742.355469 -180.316406 416.863281 C -180.316406 91.367188 84.488281 -173.4375 409.984375 -173.4375 C 735.476562 -173.4375 1000.285156 91.367188 1000.285156 416.863281 C 1000.285156 742.355469 735.476562 1007.164062 409.984375 1007.164062 Z M 409.984375 1007.164062 " fill-opacity="1" fill-rule="nonzero"/></g><path fill="#6d0033" d="M 339.851562 113.84375 C 322.121094 96.125 293.375 96.125 275.632812 113.84375 C 257.902344 131.578125 257.902344 160.332031 275.632812 178.0625 L 514.433594 416.863281 L 275.632812 655.671875 C 257.902344 673.40625 257.902344 702.160156 275.632812 719.878906 C 284.5 728.746094 296.125 733.183594 307.746094 733.183594 C 319.371094 733.183594 330.984375 728.746094 339.863281 719.878906 L 610.765625 448.964844 C 628.496094 431.234375 628.496094 402.492188 610.765625 384.746094 Z M 339.851562 113.84375 " fill-opacity="1" fill-rule="nonzero"/></svg>