<svg xmlns="http://www.w3.org/2000/svg" xmlns:xlink="http://www.w3.org/1999/xlink" width="1080" zoomAndPan="magnify" viewBox="0 0 810 809.999993" height="1080" preserveAspectRatio="xMidYMid meet" version="1.0"><defs><clipPath id="dd3b030eaa"><path d="M 405 810 C 628.675781 810 810 628.675781 810 405 C 810 181.324219 628.675781 0 405 0 C 181.324219 0 0 181.324219 0 405 C 0 628.675781 181.324219 810 405 810 Z M 405 810 " clip-rule="nonzero"/></clipPath><clipPath id="ddcd40c658"><path d="M 232.199219 164.183594 L 577.949219 164.183594 L 577.949219 645.683594 L 232.199219 645.683594 Z M 232.199219 164.183594 " clip-rule="nonzero"/></clipPath></defs><g clip-path="url(#dd3b030eaa)"><rect x="-81" width="972" fill="#8c0444" y="-80.999999" height="971.999992" fill-opacity="1"/></g><g clip-path="url(#ddcd40c658)"><path fill="#f9bcaa" d="M 407.964844 7.054688 C 184.648438 7.054688 2.964844 188.738281 2.964844 412.054688 C 2.964844 635.371094 184.648438 817.054688 407.964844 817.054688 C 631.28125 817.054688 812.964844 635.371094 812.964844 412.054688 C 812.964844 188.738281 631.28125 7.054688 407.964844 7.054688 Z M 407.964844 763.054688 C 214.421875 763.054688 56.964844 605.597656 56.964844 412.054688 C 56.964844 218.511719 214.421875 61.054688 407.964844 61.054688 C 601.507812 61.054688 758.964844 218.511719 758.964844 412.054688 C 758.964844 605.597656 601.507812 763.054688 407.964844 763.054688 Z M 407.964844 763.054688 " fill-opacity="1" fill-rule="nonzero"/></g><path fill="#f9bcaa" d="M 366.261719 231.875 C 355.71875 221.339844 338.628906 221.339844 328.078125 231.875 C 317.535156 242.421875 317.535156 259.519531 328.078125 270.0625 L 470.070312 412.054688 L 328.078125 554.054688 C 317.535156 564.597656 317.535156 581.695312 328.078125 592.230469 C 333.347656 597.503906 340.261719 600.144531 347.171875 600.144531 C 354.085938 600.144531 360.992188 597.503906 366.269531 592.230469 L 527.351562 431.144531 C 537.894531 420.601562 537.894531 403.507812 527.351562 392.957031 Z M 366.261719 231.875 " fill-opacity="1" fill-rule="nonzero"/></svg>