<svg xmlns="http://www.w3.org/2000/svg" xmlns:xlink="http://www.w3.org/1999/xlink" width="1080" zoomAndPan="magnify" viewBox="0 0 810 809.999993" height="1080" preserveAspectRatio="xMidYMid meet" version="1.0"><defs><clipPath id="3d322f8c27"><path d="M 405 810 C 628.675781 810 810 628.675781 810 405 C 810 181.324219 628.675781 0 405 0 C 181.324219 0 0 181.324219 0 405 C 0 628.675781 181.324219 810 405 810 Z M 405 810 " clip-rule="nonzero"/></clipPath><clipPath id="16d31c443f"><path d="M 232.203125 164.1875 L 577.953125 164.1875 L 577.953125 645.6875 L 232.203125 645.6875 Z M 232.203125 164.1875 " clip-rule="nonzero"/></clipPath></defs><g clip-path="url(#3d322f8c27)"><rect x="-81" width="972" fill="#8c0444" y="-80.999999" height="971.999992" fill-opacity="1"/></g><g clip-path="url(#16d31c443f)"><path fill="#ffccd5" d="M 407.964844 7.058594 C 184.648438 7.058594 2.964844 188.742188 2.964844 412.058594 C 2.964844 635.375 184.648438 817.058594 407.964844 817.058594 C 631.285156 817.058594 812.964844 635.375 812.964844 412.058594 C 812.964844 188.742188 631.285156 7.058594 407.964844 7.058594 Z M 407.964844 763.058594 C 214.421875 763.058594 56.964844 605.601562 56.964844 412.058594 C 56.964844 218.515625 214.421875 61.058594 407.964844 61.058594 C 601.507812 61.058594 758.964844 218.515625 758.964844 412.058594 C 758.964844 605.601562 601.507812 763.058594 407.964844 763.058594 Z M 407.964844 763.058594 " fill-opacity="1" fill-rule="nonzero"/></g><path fill="#ffccd5" d="M 366.265625 231.882812 C 355.722656 221.34375 338.628906 221.34375 328.082031 231.882812 C 317.535156 242.425781 317.535156 259.523438 328.082031 270.066406 L 470.074219 412.058594 L 328.082031 554.058594 C 317.535156 564.601562 317.535156 581.699219 328.082031 592.238281 C 333.351562 597.507812 340.265625 600.148438 347.175781 600.148438 C 354.089844 600.148438 360.992188 597.507812 366.273438 592.238281 L 527.355469 431.148438 C 537.898438 420.605469 537.898438 403.515625 527.355469 392.964844 Z M 366.265625 231.882812 " fill-opacity="1" fill-rule="nonzero"/></svg>