<svg xmlns="http://www.w3.org/2000/svg" xmlns:xlink="http://www.w3.org/1999/xlink" width="1920" zoomAndPan="magnify" viewBox="0 0 1440 809.999993" height="1080" preserveAspectRatio="xMidYMid meet" version="1.0"><defs><clipPath id="1c10b64a52"><path d="M 317.285156 1 L 1122 1 L 1122 810 L 317.285156 810 Z M 317.285156 1 " clip-rule="nonzero"/></clipPath></defs><g clip-path="url(#1c10b64a52)"><path fill="#6d005b" d="M 1117.226562 255.53125 C 1112.644531 228.933594 1105.222656 203.167969 1094.144531 178.453125 C 1077.675781 141.652344 1055.144531 109.242188 1025.53125 81.75 C 1001.089844 59.046875 973.542969 41.230469 943.042969 27.839844 C 907.128906 12.074219 869.464844 3.574219 830.417969 1.617188 C 797.949219 -0.0273438 765.675781 2.414062 733.722656 8.976562 C 685.9375 18.773438 641.363281 36.679688 599.253906 61.074219 C 590.460938 66.15625 582.234375 72.125 572.425781 75.589844 C 544.941406 85.304688 519.003906 98.292969 494.441406 114.023438 C 468.328125 130.742188 444.492188 150.199219 422.976562 172.558594 C 409.386719 186.679688 396.925781 201.695312 385.628906 217.683594 C 366.738281 244.433594 351.691406 273.246094 340.3125 303.984375 C 327.234375 339.300781 319.921875 375.777344 318.15625 413.316406 C 317.5 427.035156 317.691406 440.785156 318.597656 454.546875 C 319.59375 469.695312 321.300781 484.703125 324.21875 499.535156 C 333.660156 547.632812 351.828125 592.246094 378.785156 633.191406 C 398.625 663.300781 422.273438 690.054688 449.65625 713.554688 C 474.535156 734.886719 501.65625 752.746094 530.941406 767.378906 C 554.191406 778.988281 578.347656 788.28125 603.429688 795.148438 C 635.074219 803.804688 667.246094 808.773438 700.085938 809.644531 C 711.410156 809.953125 722.710938 809.644531 734.007812 809.378906 C 742.195312 809.1875 750.414062 808.566406 758.539062 807.570312 C 779.175781 805.019531 799.605469 801.289062 819.695312 795.851562 C 846.714844 788.519531 872.773438 778.648438 897.679688 765.945312 C 924.769531 752.117188 949.996094 735.425781 973.324219 715.839844 C 993.386719 698.992188 1011.527344 680.355469 1027.78125 659.898438 C 1048.144531 634.242188 1064.707031 606.257812 1077.839844 576.242188 C 1088.140625 552.675781 1095.828125 528.226562 1101.09375 503.109375 C 1106.484375 477.433594 1108.972656 451.386719 1108.160156 425.089844 C 1108.03125 421.214844 1108.660156 417.496094 1109.585938 413.765625 C 1117.535156 381.65625 1122.460938 349.152344 1121.785156 314.183594 C 1122.507812 295.648438 1120.652344 275.484375 1117.226562 255.53125 Z M 1094.257812 479.574219 C 1091.148438 501.59375 1086.351562 523.246094 1079.082031 544.3125 C 1068.398438 575.273438 1054.085938 604.429688 1035.550781 631.503906 C 1023.109375 649.671875 1009.28125 666.609375 993.953125 682.441406 C 970.152344 707.019531 943.433594 727.820312 913.992188 745.160156 C 878.054688 766.320312 839.667969 781.28125 798.972656 790.265625 C 783.226562 793.738281 767.3125 796.097656 751.253906 797.707031 C 738.8125 798.941406 726.394531 799.160156 713.945312 799.378906 C 663.472656 800.21875 614.957031 790.503906 568.019531 772.535156 C 530.28125 758.09375 495.703125 737.921875 464.363281 712.472656 C 431.128906 685.457031 403.160156 653.703125 380.832031 617.003906 C 361.296875 584.886719 347.039062 550.683594 338.164062 514.226562 C 333.300781 494.289062 330.277344 474.054688 328.886719 453.535156 C 327.9375 439.769531 327.761719 426.003906 328.449219 412.3125 C 329.875 383.988281 334.726562 356.15625 342.871094 328.9375 C 349.652344 306.339844 358.5 284.578125 369.542969 263.75 C 382.3125 239.636719 397.492188 217.1875 415.28125 196.429688 C 439.527344 168.113281 467.269531 143.902344 498.546875 123.730469 C 511.625 115.292969 525 107.296875 539.292969 101.007812 C 539.578125 101.253906 539.84375 101.519531 540.105469 101.777344 C 530.746094 109.945312 521.105469 117.835938 512.046875 126.351562 C 482.605469 154.039062 456.722656 184.757812 434.875 218.777344 C 414.730469 250.136719 398.296875 283.308594 386.03125 318.5625 C 377.265625 343.761719 370.832031 369.519531 366.78125 395.839844 C 364.734375 409.105469 363.691406 422.492188 362.890625 435.9375 C 362.15625 448.425781 362.46875 460.847656 363.109375 473.285156 C 364.453125 499.800781 368.839844 525.8125 376.296875 551.304688 C 385.464844 582.683594 399.175781 611.976562 417.75 638.90625 C 444.0625 677 477.597656 707.046875 518.253906 729.238281 C 545.601562 744.144531 574.582031 754.457031 604.992188 760.660156 C 624.261719 764.582031 643.792969 766.539062 663.527344 767.113281 C 722.835938 768.859375 779.277344 756.648438 833.644531 733.507812 C 873.804688 716.414062 910.757812 693.957031 944.660156 666.582031 C 972.535156 644.070312 997.617188 618.769531 1020.109375 590.828125 C 1041.433594 564.339844 1059.640625 535.90625 1075.097656 505.667969 C 1082.4375 491.292969 1088.898438 476.484375 1094.566406 461.359375 C 1094.894531 460.472656 1095.253906 459.59375 1096.066406 457.511719 C 1096.585938 465.800781 1095.226562 472.710938 1094.257812 479.574219 Z M 1109.042969 358.816406 C 1108.167969 365.6875 1107.21875 372.550781 1106.3125 379.40625 C 1105.808594 379.125 1105.296875 378.859375 1104.792969 378.59375 C 1102.527344 361.613281 1098.808594 344.921875 1094.046875 328.480469 C 1087.347656 305.289062 1078.671875 282.832031 1067.3125 261.527344 C 1052.96875 234.574219 1036.089844 209.335938 1015.933594 186.277344 C 994.179688 161.414062 969.710938 139.652344 942.511719 121.023438 C 914.449219 101.820312 884.371094 86.457031 852.335938 74.886719 C 827.511719 65.917969 802.054688 59.449219 776.023438 55.371094 C 763.601562 53.433594 751.070312 52.308594 738.503906 51.46875 C 726.15625 50.628906 713.84375 50.691406 701.53125 50.855469 C 676.714844 51.210938 652.21875 54.484375 627.933594 59.375 C 627.046875 59.246094 626.023438 59.566406 625.421875 58.5625 C 664.859375 38.277344 706.265625 24.058594 750.046875 16.570312 C 776.28125 12.082031 802.675781 10.492188 829.144531 11.902344 C 868.164062 13.964844 905.777344 22.519531 941.605469 38.570312 C 977.574219 54.683594 1008.859375 77.226562 1035.292969 106.328125 C 1065.511719 139.605469 1086.324219 178.234375 1098.742188 221.394531 C 1105.277344 244.015625 1109.355469 267.046875 1110.808594 290.582031 C 1112.214844 313.398438 1111.914062 336.128906 1109.042969 358.816406 Z M 1109.042969 358.816406 " fill-opacity="1" fill-rule="nonzero"/></g></svg>