<svg xmlns="http://www.w3.org/2000/svg" xmlns:xlink="http://www.w3.org/1999/xlink" width="1080" zoomAndPan="magnify" viewBox="0 0 810 809.999993" height="1080" preserveAspectRatio="xMidYMid meet" version="1.0"><path fill="#8c0444" d="M 354.894531 46.285156 C 183.152344 65.320312 43.207031 203.898438 22.480469 375.371094 C 21.8125 380.753906 21.257812 386.148438 20.820312 391.554688 C 20.378906 396.960938 20.058594 402.375 19.851562 407.796875 C 19.644531 413.21875 19.554688 418.640625 19.578125 424.066406 C 19.605469 429.488281 19.746094 434.910156 20.003906 440.328125 C 20.261719 445.746094 20.636719 451.160156 21.125 456.5625 C 21.617188 461.964844 22.222656 467.351562 22.941406 472.730469 C 23.664062 478.105469 24.5 483.464844 25.449219 488.804688 C 26.398438 494.144531 27.464844 499.464844 28.640625 504.757812 C 29.820312 510.054688 31.113281 515.320312 32.515625 520.5625 C 33.917969 525.800781 35.433594 531.007812 37.0625 536.183594 C 38.691406 541.359375 40.425781 546.496094 42.273438 551.597656 C 44.121094 556.695312 46.078125 561.753906 48.140625 566.769531 C 50.207031 571.789062 52.378906 576.757812 54.65625 581.679688 C 56.933594 586.605469 59.3125 591.476562 61.800781 596.296875 C 64.285156 601.121094 66.875 605.886719 69.5625 610.597656 C 72.253906 615.304688 75.042969 619.957031 77.933594 624.546875 C 80.824219 629.140625 83.808594 633.667969 86.894531 638.128906 C 89.976562 642.59375 93.15625 646.988281 96.425781 651.3125 C 99.699219 655.640625 103.0625 659.894531 106.515625 664.078125 C 109.972656 668.261719 113.515625 672.367188 117.144531 676.398438 C 120.773438 680.429688 124.488281 684.378906 128.289062 688.25 C 132.089844 692.121094 135.96875 695.910156 139.929688 699.617188 C 143.894531 703.320312 147.933594 706.941406 152.050781 710.472656 C 156.167969 714.003906 160.359375 717.445312 164.621094 720.800781 C 168.886719 724.152344 173.222656 727.410156 177.625 730.578125 C 182.03125 733.746094 186.5 736.816406 191.035156 739.792969 C 195.574219 742.765625 200.171875 745.644531 204.828125 748.421875 C 209.488281 751.199219 214.203125 753.875 218.980469 756.453125 C 223.753906 759.027344 228.578125 761.5 233.460938 763.871094 C 238.339844 766.238281 243.269531 768.503906 248.246094 770.660156 C 253.222656 772.820312 258.242188 774.871094 263.308594 776.8125 C 268.371094 778.753906 273.476562 780.589844 278.621094 782.3125 C 297.574219 785.34375 303.632812 773.597656 303.632812 763.386719 L 303.632812 699.363281 C 198.726562 722.152344 176.394531 648.640625 176.394531 648.640625 C 159.023438 604.699219 134.359375 592.957031 134.359375 592.957031 C 99.878906 569.472656 137.039062 570.25 137.039062 570.25 C 174.894531 572.929688 194.972656 609.257812 194.972656 609.257812 C 227.921875 666.816406 283.578125 649.765625 305.160156 640.679688 C 308.566406 616.066406 318.566406 599.390625 329.023438 589.925781 C 244.8125 580.464844 156.691406 547.890625 156.691406 403.628906 C 156.691406 361.589844 171.085938 327.890625 195.699219 301 C 191.917969 291.539062 178.648438 252.152344 199.476562 201.027344 C 199.476562 201.027344 231.300781 190.789062 303.632812 239.660156 C 319.066406 235.503906 334.707031 232.378906 350.554688 230.285156 C 366.398438 228.1875 382.3125 227.140625 398.296875 227.140625 C 414.28125 227.140625 430.195312 228.1875 446.042969 230.285156 C 461.886719 232.378906 477.527344 235.503906 492.960938 239.660156 C 565.347656 190.789062 597.117188 201.027344 597.117188 201.027344 C 617.921875 252.152344 604.675781 291.539062 600.898438 301 C 625.507812 327.8125 639.90625 361.589844 639.90625 403.628906 C 639.90625 548.265625 551.273438 580.089844 466.847656 589.550781 C 480.46875 601.292969 492.960938 624.40625 492.960938 659.605469 L 492.960938 763.386719 C 492.960938 773.597656 499.019531 785.71875 518.351562 782.3125 C 523.839844 780.472656 529.285156 778.507812 534.683594 776.421875 C 540.085938 774.332031 545.433594 772.121094 550.730469 769.785156 C 556.03125 767.453125 561.269531 764.996094 566.457031 762.421875 C 571.644531 759.847656 576.765625 757.15625 581.828125 754.347656 C 586.890625 751.539062 591.886719 748.617188 596.816406 745.578125 C 601.746094 742.539062 606.601562 739.390625 611.386719 736.128906 C 616.167969 732.871094 620.875 729.5 625.507812 726.023438 C 630.136719 722.550781 634.683594 718.96875 639.148438 715.285156 C 643.617188 711.597656 647.996094 707.816406 652.285156 703.929688 C 656.578125 700.042969 660.78125 696.0625 664.890625 691.984375 C 669 687.90625 673.015625 683.738281 676.933594 679.476562 C 680.851562 675.214844 684.671875 670.867188 688.390625 666.429688 C 692.109375 661.992188 695.726562 657.472656 699.238281 652.871094 C 702.753906 648.269531 706.15625 643.585938 709.457031 638.828125 C 712.753906 634.070312 715.941406 629.238281 719.019531 624.335938 C 722.09375 619.429688 725.058594 614.457031 727.90625 609.417969 C 730.753906 604.378906 733.488281 599.277344 736.101562 594.109375 C 738.71875 588.945312 741.210938 583.722656 743.589844 578.441406 C 745.964844 573.164062 748.21875 567.832031 750.347656 562.449219 C 752.480469 557.066406 754.488281 551.636719 756.371094 546.164062 C 758.253906 540.6875 760.011719 535.171875 761.640625 529.617188 C 763.269531 524.0625 764.773438 518.472656 766.144531 512.847656 C 767.519531 507.222656 768.765625 501.570312 769.878906 495.890625 C 770.992188 490.207031 771.976562 484.503906 772.832031 478.777344 C 773.683594 473.050781 774.40625 467.308594 774.996094 461.550781 C 775.585938 455.789062 776.046875 450.019531 776.371094 444.238281 C 776.699219 438.460938 776.890625 432.675781 776.953125 426.886719 C 777.011719 421.097656 776.941406 415.308594 776.738281 409.523438 C 776.535156 403.738281 776.195312 397.957031 775.726562 392.1875 C 775.257812 386.417969 774.65625 380.660156 773.925781 374.917969 C 773.191406 369.175781 772.328125 363.453125 771.332031 357.746094 C 770.339844 352.042969 769.214844 346.367188 767.957031 340.714844 C 766.703125 335.0625 765.320312 329.441406 763.804688 323.855469 C 762.292969 318.265625 760.652344 312.714844 758.886719 307.203125 C 757.121094 301.6875 755.226562 296.21875 753.210938 290.792969 C 751.191406 285.363281 749.050781 279.988281 746.785156 274.660156 C 744.523438 269.332031 742.136719 264.054688 739.632812 258.835938 C 737.125 253.617188 734.503906 248.460938 731.761719 243.359375 C 729.019531 238.261719 726.160156 233.226562 723.1875 228.257812 C 720.214844 223.292969 717.128906 218.394531 713.933594 213.566406 C 710.734375 208.742188 707.429688 203.988281 704.015625 199.3125 C 700.601562 194.640625 697.082031 190.042969 693.453125 185.53125 C 689.828125 181.015625 686.101562 176.585938 682.273438 172.246094 C 678.445312 167.902344 674.519531 163.648438 670.496094 159.484375 C 666.472656 155.320312 662.359375 151.253906 658.148438 147.277344 C 653.9375 143.304688 649.640625 139.425781 645.253906 135.648438 C 640.867188 131.871094 636.394531 128.195312 631.839844 124.625 C 627.28125 121.050781 622.648438 117.582031 617.933594 114.222656 C 613.21875 110.863281 608.429688 107.613281 603.566406 104.472656 C 598.703125 101.332031 593.769531 98.300781 588.769531 95.386719 C 583.765625 92.472656 578.699219 89.671875 573.570312 86.992188 C 568.4375 84.308594 563.25 81.742188 558 79.296875 C 552.753906 76.851562 547.453125 74.53125 542.097656 72.328125 C 536.742188 70.125 531.339844 68.046875 525.890625 66.09375 C 520.441406 64.136719 514.949219 62.308594 509.417969 60.605469 C 503.882812 58.902344 498.3125 57.328125 492.707031 55.878906 C 487.101562 54.429688 481.46875 53.113281 475.800781 51.921875 C 470.136719 50.734375 464.445312 49.675781 458.730469 48.746094 C 453.015625 47.816406 447.28125 47.019531 441.53125 46.351562 C 435.78125 45.6875 430.015625 45.152344 424.242188 44.75 C 418.464844 44.347656 412.683594 44.078125 406.894531 43.941406 C 401.109375 43.804688 395.320312 43.800781 389.53125 43.925781 C 383.742188 44.054688 377.960938 44.316406 372.183594 44.707031 C 366.410156 45.101562 360.644531 45.625 354.894531 46.285156 Z M 354.894531 46.285156 " fill-opacity="1" fill-rule="nonzero"/></svg>